<svg width="1200" height="630" viewBox="0 0 1200 630" fill="none" xmlns="http://www.w3.org/2000/svg">
  <rect width="1200" height="630" fill="#F7F7F7"/>
  <rect x="56" y="56" width="1088" height="518" rx="36" fill="white" stroke="black" stroke-opacity="0.08"/>
  <circle cx="168" cy="144" r="44" fill="black"/>
  <path d="M168 112L136 124V148C136 165.673 150.327 180 168 180C185.673 180 200 165.673 200 148V124L168 112Z" fill="white"/>
  <path d="M154 148L163.5 157.5L182 139" stroke="black" stroke-width="6" stroke-linecap="round" stroke-linejoin="round"/>
  <text x="240" y="156" fill="black" font-family="Inter, Arial, sans-serif" font-size="54" font-weight="700">Kahade</text>
  <text x="240" y="214" fill="black" fill-opacity="0.6" font-family="Inter, Arial, sans-serif" font-size="26">Platform escrow dengan alur transaksi yang lebih aman dan transparan.</text>
  <rect x="88" y="298" width="308" height="172" rx="24" fill="#0A0A0A"/>
  <text x="118" y="346" fill="white" fill-opacity="0.58" font-family="Inter, Arial, sans-serif" font-size="18" font-weight="600">Transaksi tertata</text>
  <text x="118" y="396" fill="white" font-family="Inter, Arial, sans-serif" font-size="36" font-weight="700">Escrow workflow</text>
  <text x="118" y="430" fill="white" fill-opacity="0.62" font-family="Inter, Arial, sans-serif" font-size="20">Panduan buyer, seller, dan support</text>
  <rect x="430" y="298" width="308" height="172" rx="24" fill="white" stroke="black" stroke-opacity="0.08"/>
  <text x="460" y="346" fill="black" fill-opacity="0.55" font-family="Inter, Arial, sans-serif" font-size="18" font-weight="600">Dokumentasi</text>
  <text x="460" y="396" fill="black" font-family="Inter, Arial, sans-serif" font-size="36" font-weight="700">Help center</text>
  <text x="460" y="430" fill="black" fill-opacity="0.58" font-family="Inter, Arial, sans-serif" font-size="20">Konten legal, status, dan integrasi</text>
  <rect x="772" y="298" width="340" height="172" rx="24" fill="white" stroke="black" stroke-opacity="0.08"/>
  <text x="802" y="346" fill="black" fill-opacity="0.55" font-family="Inter, Arial, sans-serif" font-size="18" font-weight="600">Arah desain</text>
  <text x="802" y="396" fill="black" font-family="Inter, Arial, sans-serif" font-size="36" font-weight="700">Monochrome</text>
  <text x="802" y="430" fill="black" fill-opacity="0.58" font-family="Inter, Arial, sans-serif" font-size="20">Layout rapi untuk landing modern</text>
</svg>
