<svg id="svg" version="1.1" xmlns="http://www.w3.org/2000/svg" xmlns:xlink="http://www.w3.org/1999/xlink" width="400" height="400.200100050025" viewBox="0, 0, 400,400.200100050025"><g id="svgg"><path id="path0" d="M159.480 44.222 L 159.480 48.824 160.530 48.827 C 176.675 48.872,183.560 52.770,186.388 63.467 C 186.929 65.515,187.494 69.435,187.494 71.146 L 187.494 72.236 138.369 72.236 L 89.245 72.236 89.245 77.303 L 89.245 82.369 95.098 82.606 C 114.711 83.399,120.771 88.219,123.196 104.952 C 123.624 107.907,123.883 285.952,123.468 292.467 C 122.244 311.718,115.370 316.934,91.196 316.957 L 89.245 316.958 89.245 322.461 L 89.245 327.964 164.736 327.964 C 214.520 327.964,241.316 327.894,243.425 327.757 C 286.498 324.971,318.328 303.186,325.573 271.536 C 327.936 261.213,327.651 249.038,324.828 239.720 C 317.574 215.775,294.466 195.354,261.731 183.960 C 260.025 183.366,258.494 182.830,258.329 182.770 C 258.159 182.707,259.154 182.202,260.630 181.603 C 289.155 170.015,304.537 153.034,307.676 129.665 C 312.328 95.035,283.859 72.882,233.948 72.292 L 225.275 72.189 225.409 70.562 C 226.654 55.375,232.351 50.267,248.474 49.882 L 253.127 49.771 253.127 44.695 L 253.127 39.620 206.303 39.620 L 159.480 39.620 159.480 44.222 M234.517 84.996 C 258.122 88.865,271.409 103.867,271.421 126.663 C 271.433 148.589,258.700 165.091,234.402 174.640 C 231.350 175.839,225.923 177.689,225.456 177.689 C 225.377 177.689,225.313 158.914,225.313 135.967 L 225.313 94.245 206.453 94.296 L 187.594 94.347 187.543 138.806 C 187.496 180.930,187.474 183.270,187.143 183.364 C 186.951 183.419,184.722 183.570,182.191 183.700 C 179.660 183.830,177.007 183.994,176.297 184.064 L 175.004 184.192 172.489 190.395 L 169.974 196.598 172.681 196.661 C 186.016 196.969,211.846 194.225,229.615 190.614 L 233.017 189.923 236.818 191.877 C 264.269 205.990,281.381 226.109,286.019 249.725 C 290.709 273.602,282.882 291.632,262.663 303.526 C 252.798 309.329,239.003 313.134,227.764 313.153 L 225.313 313.157 225.313 258.429 C 225.313 226.591,225.238 203.702,225.135 203.702 C 225.037 203.702,224.076 203.883,222.999 204.105 C 214.172 205.921,203.798 207.132,189.445 208.021 L 187.494 208.141 187.494 260.679 L 187.494 313.217 184.942 313.099 C 171.562 312.481,164.175 306.007,161.947 292.946 C 161.602 290.924,161.234 85.575,161.573 84.690 C 161.653 84.481,168.321 84.444,196.744 84.493 L 231.816 84.553 234.517 84.996 M187.494 338.759 C 187.494 340.203,186.888 344.247,186.388 346.137 C 183.552 356.865,176.747 360.718,160.530 360.777 L 159.480 360.780 159.480 365.383 L 159.480 369.985 206.303 369.985 L 253.127 369.985 253.127 364.909 L 253.127 359.833 248.374 359.720 C 236.202 359.429,230.582 356.582,227.496 349.141 C 226.484 346.700,225.937 344.076,225.407 339.120 L 225.284 337.969 206.389 337.969 L 187.494 337.969 187.494 338.759 " stroke="none" fill="#fbfbfb" fill-rule="evenodd"></path><path id="path1" d="M189.495 0.124 C 172.603 1.229,158.881 3.537,144.572 7.680 C 68.677 29.655,12.828 93.977,1.819 172.086 C -1.060 192.516,-0.585 215.957,3.117 236.194 C 6.733 255.961,14.828 279.260,23.286 294.247 C 28.299 303.131,30.799 307.259,34.191 312.256 C 65.943 359.034,115.531 390.188,170.985 398.198 C 181.984 399.787,186.700 400.095,200.000 400.093 C 214.294 400.092,221.808 399.510,233.717 397.481 C 319.059 382.939,385.785 314.549,398.083 229.015 C 399.654 218.090,399.900 214.176,399.900 200.100 C 399.900 186.024,399.654 182.110,398.083 171.186 C 385.087 80.797,310.133 9.046,220.210 0.915 C 218.339 0.746,215.818 0.507,214.607 0.384 C 212.552 0.176,191.964 -0.037,189.495 0.124 M206.503 0.605 C 323.525 4.869,411.134 106.330,398.284 222.711 C 388.042 315.478,313.280 389.361,220.210 398.694 C 108.905 409.855,10.398 327.900,1.109 216.408 C -8.318 103.254,79.195 4.736,192.796 0.615 C 199.088 0.387,200.504 0.386,206.503 0.605 M158.970 39.273 C 158.916 39.413,158.896 41.732,158.926 44.426 L 158.979 49.325 163.082 49.453 C 172.480 49.748,177.301 51.149,180.996 54.658 C 184.592 58.074,186.182 62.277,186.985 70.485 L 187.097 71.636 137.971 71.636 L 88.844 71.636 88.844 77.309 L 88.844 82.982 94.197 83.101 C 114.561 83.554,120.751 88.656,122.893 106.753 C 123.214 109.461,123.386 283.635,123.075 290.374 C 122.121 311.027,115.880 316.352,92.624 316.357 L 88.899 316.358 88.752 322.282 C 88.664 325.847,88.679 328.279,88.790 328.390 C 89.080 328.679,241.781 328.495,244.922 328.201 C 295.088 323.507,326.272 297.369,327.687 258.829 C 328.858 226.925,304.809 199.000,263.197 183.945 L 259.531 182.618 261.782 181.682 C 290.693 169.652,306.115 151.816,308.367 127.805 C 311.579 93.546,283.537 72.569,233.367 71.701 L 225.913 71.572 225.913 70.814 C 225.913 67.549,227.123 62.348,228.561 59.430 C 231.827 52.802,238.134 50.236,251.176 50.227 L 253.727 50.225 253.727 44.622 L 253.727 39.020 206.397 39.020 C 168.342 39.020,159.048 39.069,158.970 39.273 M253.327 44.592 L 253.327 49.765 249.075 49.905 C 232.560 50.451,226.590 55.558,225.596 69.992 L 225.456 72.036 230.937 72.036 C 271.741 72.037,299.897 86.107,306.565 109.828 C 309.043 118.644,308.640 130.253,305.516 140.040 C 299.827 157.860,283.967 172.563,260.476 181.794 C 259.400 182.217,258.590 182.622,258.675 182.695 C 258.760 182.768,259.955 183.213,261.331 183.684 C 284.210 191.520,304.187 205.139,315.429 220.565 C 326.652 235.964,330.113 254.912,325.141 273.727 C 317.457 302.803,287.816 323.590,248.524 327.457 C 241.728 328.125,237.996 328.156,163.632 328.160 L 89.045 328.164 89.045 325.613 C 89.046 324.210,89.105 321.643,89.177 319.910 L 89.307 316.758 92.431 316.758 C 113.462 316.758,120.422 312.384,122.910 297.604 L 123.340 295.048 123.411 202.501 C 123.485 105.999,123.497 107.465,122.633 102.380 C 120.173 87.893,113.319 83.183,93.953 82.669 L 89.145 82.541 89.145 77.339 L 89.145 72.136 138.312 72.086 L 187.479 72.035 187.373 70.685 C 186.117 54.558,179.930 49.389,161.381 48.970 L 159.380 48.924 159.326 44.427 C 159.296 41.953,159.316 39.814,159.369 39.674 C 159.448 39.469,168.593 39.420,206.397 39.420 L 253.327 39.420 253.327 44.592 M161.736 188.144 L 161.797 291.846 162.239 294.117 C 164.662 306.567,173.173 313.153,186.843 313.156 L 187.494 313.157 187.494 260.567 L 187.494 207.977 191.946 207.737 C 203.039 207.140,218.143 205.238,225.063 203.567 L 225.513 203.458 225.513 258.336 L 225.513 313.215 228.464 313.078 C 262.591 311.495,287.218 290.676,287.189 263.432 C 287.158 233.712,269.686 209.008,236.559 191.845 L 233.098 190.052 227.855 191.071 C 211.599 194.232,196.680 195.932,178.489 196.699 C 172.662 196.945,169.885 196.952,169.885 196.721 C 169.885 196.522,174.540 184.941,174.862 184.340 C 175.045 183.998,175.385 183.941,177.929 183.827 C 179.503 183.756,182.299 183.593,184.142 183.463 L 187.494 183.227 187.494 138.737 L 187.494 94.247 206.503 94.247 L 225.513 94.247 225.513 135.868 C 225.513 159.431,225.589 177.489,225.687 177.489 C 226.153 177.489,231.380 175.707,234.317 174.547 C 258.629 164.945,271.336 148.526,271.336 126.711 C 271.336 106.361,260.635 92.100,241.208 86.562 C 233.989 84.504,232.769 84.449,194.245 84.445 L 161.676 84.442 161.736 188.144 M233.184 85.310 C 256.769 88.710,270.351 103.075,270.873 125.174 C 271.444 149.337,257.065 166.789,228.914 176.098 L 226.013 177.058 225.963 135.452 L 225.912 93.847 206.503 93.847 L 187.094 93.847 187.094 138.369 C 187.094 173.851,187.043 182.892,186.843 182.896 C 186.706 182.898,184.702 183.032,182.391 183.193 C 180.080 183.354,177.457 183.487,176.563 183.489 C 175.507 183.491,174.865 183.579,174.734 183.742 C 174.497 184.033,169.285 196.871,169.285 197.162 C 169.285 197.287,170.982 197.308,174.037 197.221 C 193.366 196.667,210.706 194.813,227.844 191.466 L 233.077 190.445 236.048 192.002 C 259.794 204.445,274.884 219.631,282.234 238.483 C 286.865 250.363,288.141 264.352,285.520 274.530 C 280.069 295.697,256.822 311.348,228.864 312.674 L 225.913 312.814 225.913 257.958 C 225.913 205.846,225.895 203.102,225.563 203.105 C 225.370 203.106,224.640 203.242,223.941 203.407 C 216.686 205.117,196.257 207.494,188.744 207.502 L 187.094 207.504 187.094 260.156 L 187.094 312.808 185.043 312.666 C 171.994 311.765,164.939 305.924,162.639 294.117 L 162.196 291.846 162.137 188.337 L 162.077 84.828 196.446 84.899 C 227.546 84.962,231.041 85.001,233.184 85.310 M186.998 338.918 C 185.695 354.465,179.925 359.629,163.282 360.146 L 158.979 360.280 158.979 365.383 L 158.979 370.485 206.353 370.536 L 253.727 370.586 253.727 364.983 L 253.727 359.380 251.076 359.378 C 233.153 359.366,226.719 354.030,225.868 338.469 L 225.813 337.469 206.470 337.418 L 187.128 337.367 186.998 338.918 M225.657 340.370 C 226.905 353.114,232.501 358.697,244.822 359.492 C 245.813 359.555,246.983 359.640,247.424 359.678 C 247.864 359.717,249.372 359.756,250.775 359.764 L 253.327 359.780 253.327 364.983 L 253.327 370.186 206.353 370.135 L 159.380 370.085 159.380 365.383 L 159.380 360.680 163.182 360.547 C 175.874 360.103,181.482 357.400,184.916 350.073 C 186.121 347.502,187.288 342.341,187.296 339.544 C 187.298 339.063,187.354 338.466,187.420 338.218 L 187.541 337.767 206.477 337.818 L 225.412 337.869 225.657 340.370 " stroke="none" fill="#10131b" fill-rule="evenodd"></path><path id="path2" d="M198.459 0.549 C 199.372 0.586,200.813 0.586,201.660 0.549 C 202.508 0.511,201.761 0.481,200.000 0.481 C 198.239 0.481,197.546 0.512,198.459 0.549 M191.546 0.747 C 192.069 0.789,192.924 0.789,193.447 0.747 C 193.969 0.706,193.542 0.672,192.496 0.672 C 191.451 0.672,191.023 0.706,191.546 0.747 M206.553 0.747 C 207.076 0.789,207.931 0.789,208.454 0.747 C 208.977 0.706,208.549 0.672,207.504 0.672 C 206.458 0.672,206.031 0.706,206.553 0.747 M187.447 0.945 C 187.807 0.990,188.347 0.989,188.648 0.943 C 188.949 0.898,188.654 0.861,187.994 0.862 C 187.334 0.864,187.088 0.901,187.447 0.945 M211.459 0.945 C 211.819 0.990,212.359 0.989,212.660 0.943 C 212.961 0.898,212.666 0.861,212.006 0.862 C 211.346 0.864,211.100 0.901,211.459 0.945 M184.545 1.144 C 184.849 1.190,185.299 1.189,185.546 1.141 C 185.792 1.094,185.543 1.056,184.992 1.058 C 184.442 1.059,184.241 1.098,184.545 1.144 M214.560 1.144 C 214.864 1.190,215.314 1.189,215.561 1.141 C 215.807 1.094,215.558 1.056,215.008 1.058 C 214.457 1.059,214.256 1.098,214.560 1.144 M182.041 1.342 C 182.289 1.390,182.694 1.390,182.941 1.342 C 183.189 1.294,182.986 1.255,182.491 1.255 C 181.996 1.255,181.793 1.294,182.041 1.342 M217.261 1.342 C 217.510 1.390,217.870 1.388,218.061 1.338 C 218.253 1.288,218.049 1.249,217.609 1.251 C 217.169 1.253,217.012 1.294,217.261 1.342 M180.042 1.542 C 180.291 1.590,180.651 1.588,180.843 1.538 C 181.034 1.488,180.830 1.449,180.390 1.451 C 179.950 1.453,179.793 1.494,180.042 1.542 M219.262 1.542 C 219.511 1.590,219.871 1.588,220.062 1.538 C 220.254 1.488,220.050 1.449,219.610 1.451 C 219.170 1.453,219.013 1.494,219.262 1.542 M178.139 1.739 C 178.332 1.789,178.647 1.789,178.839 1.739 C 179.032 1.688,178.874 1.647,178.489 1.647 C 178.104 1.647,177.946 1.688,178.139 1.739 M221.161 1.739 C 221.353 1.789,221.668 1.789,221.861 1.739 C 222.054 1.688,221.896 1.647,221.511 1.647 C 221.126 1.647,220.968 1.688,221.161 1.739 M176.338 1.939 C 176.531 1.989,176.846 1.989,177.039 1.939 C 177.231 1.889,177.074 1.847,176.688 1.847 C 176.303 1.847,176.146 1.889,176.338 1.939 M222.961 1.939 C 223.154 1.989,223.469 1.989,223.662 1.939 C 223.854 1.889,223.697 1.847,223.312 1.847 C 222.926 1.847,222.769 1.889,222.961 1.939 M119.660 17.309 C 119.385 17.466,119.250 17.595,119.360 17.595 C 119.470 17.595,119.785 17.466,120.060 17.309 C 120.335 17.151,120.470 17.023,120.360 17.023 C 120.250 17.023,119.935 17.151,119.660 17.309 M117.859 18.109 C 117.584 18.266,117.449 18.395,117.559 18.395 C 117.669 18.395,117.984 18.266,118.259 18.109 C 118.534 17.952,118.669 17.823,118.559 17.823 C 118.449 17.823,118.134 17.952,117.859 18.109 M115.458 19.210 C 115.073 19.420,114.847 19.593,114.957 19.593 C 115.068 19.593,115.473 19.420,115.858 19.210 C 116.243 18.999,116.468 18.826,116.358 18.826 C 116.248 18.826,115.843 18.999,115.458 19.210 M283.942 19.110 C 284.217 19.267,284.532 19.396,284.642 19.396 C 284.752 19.396,284.617 19.267,284.342 19.110 C 284.067 18.952,283.752 18.824,283.642 18.824 C 283.532 18.824,283.667 18.952,283.942 19.110 M287.761 20.887 C 287.964 21.074,290.745 22.406,290.745 22.316 C 290.745 22.204,288.033 20.810,287.816 20.810 C 287.739 20.810,287.715 20.845,287.761 20.887 M106.403 23.725 C 105.880 23.997,105.453 24.265,105.453 24.319 C 105.453 24.374,105.903 24.191,106.453 23.912 C 107.004 23.633,107.454 23.361,107.454 23.308 C 107.454 23.176,107.472 23.169,106.403 23.725 M293.347 23.704 C 293.347 23.759,293.707 23.988,294.147 24.212 C 294.587 24.437,294.947 24.575,294.947 24.520 C 294.947 24.465,294.587 24.237,294.147 24.012 C 293.707 23.787,293.347 23.649,293.347 23.704 M103.802 25.127 C 103.054 25.533,103.099 25.702,103.852 25.313 C 104.182 25.142,104.452 24.960,104.452 24.907 C 104.452 24.779,104.431 24.786,103.802 25.127 M295.548 24.902 C 295.548 24.957,295.818 25.142,296.148 25.313 C 296.478 25.483,296.748 25.578,296.748 25.523 C 296.748 25.468,296.478 25.283,296.148 25.113 C 295.818 24.942,295.548 24.847,295.548 24.902 M297.349 25.903 C 297.349 25.958,297.619 26.142,297.949 26.313 C 298.279 26.484,298.549 26.579,298.549 26.524 C 298.549 26.469,298.279 26.284,297.949 26.113 C 297.619 25.942,297.349 25.848,297.349 25.903 M305.453 30.719 C 305.673 30.898,306.033 31.133,306.253 31.241 L 306.653 31.438 306.253 31.112 C 306.033 30.933,305.673 30.698,305.453 30.590 L 305.053 30.393 305.453 30.719 M307.654 32.120 C 307.874 32.299,308.234 32.534,308.454 32.642 L 308.854 32.838 308.454 32.513 C 308.234 32.333,307.874 32.098,307.654 31.990 L 307.254 31.794 307.654 32.120 M89.694 33.719 C 88.456 34.546,87.444 35.269,87.444 35.325 C 87.444 35.424,91.556 32.737,91.936 32.390 C 92.421 31.946,91.766 32.334,89.694 33.719 M311.956 34.898 C 311.956 34.953,312.361 35.277,312.856 35.618 C 313.352 35.959,313.757 36.192,313.757 36.137 C 313.757 36.082,313.352 35.758,312.856 35.418 C 312.361 35.077,311.956 34.843,311.956 34.898 M85.343 36.736 L 84.742 37.252 85.393 36.821 C 85.750 36.585,86.043 36.352,86.043 36.305 C 86.043 36.155,85.958 36.207,85.343 36.736 M314.557 36.691 C 314.557 36.746,314.827 36.984,315.158 37.219 C 315.488 37.454,315.758 37.601,315.758 37.546 C 315.758 37.491,315.488 37.254,315.158 37.019 C 314.827 36.783,314.557 36.636,314.557 36.691 M315.958 37.692 C 315.958 37.747,316.228 37.984,316.558 38.219 C 316.888 38.454,317.159 38.602,317.159 38.547 C 317.159 38.491,316.888 38.254,316.558 38.019 C 316.228 37.784,315.958 37.637,315.958 37.692 M82.541 38.737 L 81.941 39.253 82.591 38.822 C 82.949 38.586,83.242 38.353,83.242 38.306 C 83.242 38.156,83.157 38.208,82.541 38.737 M70.723 48.074 L 70.135 48.724 70.785 48.137 C 71.392 47.589,71.528 47.424,71.373 47.424 C 71.339 47.424,71.046 47.716,70.723 48.074 M330.365 49.125 C 330.739 49.510,331.089 49.825,331.144 49.825 C 331.199 49.825,330.939 49.510,330.565 49.125 C 330.192 48.739,329.841 48.424,329.786 48.424 C 329.731 48.424,329.992 48.739,330.365 49.125 M69.322 49.275 L 68.734 49.925 69.385 49.337 C 69.991 48.789,70.127 48.624,69.972 48.624 C 69.938 48.624,69.645 48.917,69.322 49.275 M163.427 49.569 C 163.782 49.613,164.413 49.614,164.828 49.571 C 165.243 49.527,164.952 49.491,164.182 49.490 C 163.412 49.489,163.072 49.525,163.427 49.569 M167.134 49.763 C 167.326 49.813,167.641 49.813,167.834 49.763 C 168.027 49.712,167.869 49.671,167.484 49.671 C 167.099 49.671,166.941 49.712,167.134 49.763 M331.966 50.525 C 332.339 50.910,332.690 51.226,332.745 51.226 C 332.800 51.226,332.539 50.910,332.166 50.525 C 331.793 50.140,331.442 49.825,331.387 49.825 C 331.332 49.825,331.593 50.140,331.966 50.525 M67.623 50.775 L 66.933 51.526 67.684 50.836 C 68.097 50.457,68.434 50.119,68.434 50.086 C 68.434 49.933,68.265 50.077,67.623 50.775 M248.974 50.374 C 249.827 50.411,251.223 50.411,252.076 50.374 C 252.929 50.336,252.231 50.306,250.525 50.306 C 248.819 50.306,248.122 50.336,248.974 50.374 M244.675 50.567 C 244.924 50.615,245.284 50.613,245.475 50.563 C 245.666 50.513,245.463 50.473,245.023 50.476 C 244.582 50.478,244.426 50.519,244.675 50.567 M333.867 52.226 C 334.297 52.666,334.694 53.027,334.749 53.027 C 334.804 53.027,334.497 52.666,334.067 52.226 C 333.637 51.786,333.240 51.426,333.185 51.426 C 333.130 51.426,333.437 51.786,333.867 52.226 M65.633 52.526 C 65.147 53.022,64.794 53.427,64.849 53.427 C 64.904 53.427,65.347 53.022,65.833 52.526 C 66.319 52.031,66.672 51.626,66.617 51.626 C 66.562 51.626,66.119 52.031,65.633 52.526 M234.867 52.840 C 234.455 53.058,234.117 53.281,234.117 53.336 C 234.117 53.425,235.698 52.686,235.901 52.502 C 236.132 52.293,235.530 52.490,234.867 52.840 M336.668 54.827 C 337.544 55.708,338.305 56.428,338.360 56.428 C 338.415 56.428,337.744 55.708,336.868 54.827 C 335.993 53.947,335.232 53.227,335.177 53.227 C 335.122 53.227,335.793 53.947,336.668 54.827 M62.527 55.478 L 60.730 57.329 62.581 55.532 C 64.300 53.863,64.523 53.627,64.378 53.627 C 64.348 53.627,63.515 54.460,62.527 55.478 M340.970 58.929 C 341.901 59.865,342.708 60.630,342.763 60.630 C 342.818 60.630,342.101 59.865,341.171 58.929 C 340.240 57.994,339.434 57.229,339.379 57.229 C 339.323 57.229,340.040 57.994,340.970 58.929 M55.323 62.681 L 53.527 64.532 55.378 62.736 C 57.097 61.067,57.320 60.830,57.174 60.830 C 57.145 60.830,56.312 61.663,55.323 62.681 M345.073 63.232 C 345.948 64.112,346.709 64.832,346.764 64.832 C 346.819 64.832,346.148 64.112,345.273 63.232 C 344.397 62.351,343.636 61.631,343.581 61.631 C 343.526 61.631,344.197 62.351,345.073 63.232 M52.319 65.883 L 51.326 66.933 52.376 65.940 C 52.954 65.394,53.427 64.922,53.427 64.890 C 53.427 64.741,53.241 64.907,52.319 65.883 M347.766 66.083 C 348.595 66.967,348.774 67.125,348.774 66.975 C 348.774 66.943,348.347 66.515,347.824 66.025 L 346.873 65.133 347.766 66.083 M50.615 67.784 L 49.925 68.534 50.675 67.845 C 51.374 67.203,51.518 67.034,51.365 67.034 C 51.331 67.034,50.994 67.371,50.615 67.784 M349.375 67.934 C 349.748 68.319,350.099 68.634,350.154 68.634 C 350.209 68.634,349.948 68.319,349.575 67.934 C 349.201 67.549,348.851 67.234,348.796 67.234 C 348.741 67.234,349.001 67.549,349.375 67.934 M186.740 69.035 C 186.740 69.420,186.781 69.577,186.831 69.385 C 186.882 69.192,186.882 68.877,186.831 68.684 C 186.781 68.492,186.740 68.649,186.740 69.035 M49.112 69.485 L 48.524 70.135 49.175 69.547 C 49.781 69.000,49.917 68.834,49.762 68.834 C 49.728 68.834,49.435 69.127,49.112 69.485 M350.375 69.097 C 350.375 69.132,350.668 69.424,351.026 69.747 L 351.676 70.335 351.088 69.685 C 350.540 69.079,350.375 68.943,350.375 69.097 M225.963 70.135 C 225.966 70.575,226.007 70.732,226.054 70.483 C 226.102 70.234,226.101 69.874,226.050 69.683 C 226.000 69.491,225.961 69.695,225.963 70.135 M47.911 70.885 L 47.324 71.536 47.974 70.948 C 48.580 70.400,48.716 70.235,48.562 70.235 C 48.527 70.235,48.235 70.528,47.911 70.885 M88.733 77.339 C 88.733 80.530,88.760 81.808,88.794 80.178 C 88.828 78.548,88.828 75.937,88.794 74.375 C 88.760 72.813,88.733 74.147,88.733 77.339 M237.469 71.782 C 237.936 71.824,238.702 71.824,239.170 71.782 C 239.637 71.740,239.255 71.706,238.319 71.706 C 237.384 71.706,237.001 71.740,237.469 71.782 M242.071 71.977 C 242.319 72.025,242.724 72.025,242.971 71.977 C 243.219 71.929,243.017 71.890,242.521 71.890 C 242.026 71.890,241.823 71.929,242.071 71.977 M244.772 72.174 C 244.965 72.224,245.280 72.224,245.473 72.174 C 245.665 72.124,245.508 72.082,245.123 72.082 C 244.737 72.082,244.580 72.124,244.772 72.174 M89.132 77.339 C 89.132 80.200,89.160 81.343,89.194 79.878 C 89.228 78.413,89.228 76.072,89.194 74.676 C 89.160 73.279,89.132 74.477,89.132 77.339 M356.178 76.038 C 356.527 76.478,356.857 76.838,356.912 76.838 C 356.967 76.838,356.727 76.478,356.378 76.038 C 356.030 75.598,355.699 75.238,355.644 75.238 C 355.589 75.238,355.829 75.598,356.178 76.038 M359.467 80.306 C 359.775 80.710,360.068 81.041,360.117 81.041 C 360.256 81.041,359.390 79.870,359.134 79.712 C 359.009 79.634,359.159 79.902,359.467 80.306 M38.619 82.641 C 38.384 82.971,38.237 83.242,38.292 83.242 C 38.347 83.242,38.584 82.971,38.819 82.641 C 39.055 82.311,39.202 82.041,39.147 82.041 C 39.092 82.041,38.854 82.311,38.619 82.641 M361.781 83.442 C 362.016 83.772,362.253 84.042,362.308 84.042 C 362.363 84.042,362.216 83.772,361.981 83.442 C 361.746 83.112,361.509 82.841,361.453 82.841 C 361.398 82.841,361.546 83.112,361.781 83.442 M94.597 83.188 C 95.065 83.230,95.830 83.230,96.298 83.188 C 96.766 83.146,96.383 83.111,95.448 83.111 C 94.512 83.111,94.130 83.146,94.597 83.188 M98.999 83.383 C 99.247 83.431,99.652 83.431,99.900 83.383 C 100.148 83.335,99.945 83.296,99.450 83.296 C 98.954 83.296,98.752 83.335,98.999 83.383 M362.781 84.842 C 363.016 85.173,363.254 85.443,363.309 85.443 C 363.364 85.443,363.217 85.173,362.981 84.842 C 362.746 84.512,362.509 84.242,362.454 84.242 C 362.399 84.242,362.546 84.512,362.781 84.842 M36.618 85.443 C 36.383 85.773,36.236 86.043,36.291 86.043 C 36.346 86.043,36.583 85.773,36.818 85.443 C 37.054 85.113,37.201 84.842,37.146 84.842 C 37.091 84.842,36.853 85.113,36.618 85.443 M162.131 187.444 L 162.181 290.045 162.231 187.544 L 162.282 85.044 195.448 84.992 L 228.614 84.941 195.348 84.892 L 162.081 84.842 162.131 187.444 M230.365 85.180 C 230.558 85.231,230.873 85.231,231.066 85.180 C 231.258 85.130,231.101 85.089,230.715 85.089 C 230.330 85.089,230.173 85.130,230.365 85.180 M364.182 86.843 C 364.417 87.174,364.655 87.444,364.710 87.444 C 364.765 87.444,364.617 87.174,364.382 86.843 C 364.147 86.513,363.910 86.243,363.855 86.243 C 363.800 86.243,363.947 86.513,364.182 86.843 M35.018 87.744 C 34.677 88.239,34.443 88.644,34.498 88.644 C 34.553 88.644,34.877 88.239,35.218 87.744 C 35.558 87.249,35.792 86.843,35.737 86.843 C 35.682 86.843,35.358 87.249,35.018 87.744 M116.258 89.345 C 116.856 89.950,117.390 90.445,117.445 90.445 C 117.500 90.445,117.056 89.950,116.458 89.345 C 115.860 88.739,115.326 88.244,115.271 88.244 C 115.216 88.244,115.660 88.739,116.258 89.345 M296.448 92.046 C 297.434 93.037,298.286 93.847,298.341 93.847 C 298.396 93.847,297.634 93.037,296.648 92.046 C 295.662 91.056,294.811 90.245,294.756 90.245 C 294.701 90.245,295.462 91.056,296.448 92.046 M32.893 90.895 C 32.204 92.064,32.159 92.164,32.510 91.746 C 32.916 91.262,33.267 90.645,33.135 90.645 C 33.083 90.645,32.974 90.758,32.893 90.895 M367.758 92.146 C 367.866 92.366,368.101 92.726,368.281 92.946 L 368.606 93.347 368.410 92.946 C 368.302 92.726,368.067 92.366,367.888 92.146 L 367.562 91.746 367.758 92.146 M186.986 93.897 C 186.934 94.035,186.914 114.137,186.943 138.569 L 186.994 182.991 187.044 138.420 L 187.094 93.849 206.453 93.797 L 225.813 93.745 206.447 93.696 C 191.102 93.657,187.061 93.699,186.986 93.897 M259.730 97.549 C 260.771 98.594,261.668 99.450,261.723 99.450 C 261.778 99.450,260.971 98.594,259.930 97.549 C 258.889 96.503,257.992 95.648,257.937 95.648 C 257.882 95.648,258.689 96.503,259.730 97.549 M26.913 100.650 C 26.743 100.980,26.648 101.251,26.703 101.251 C 26.758 101.251,26.943 100.980,27.114 100.650 C 27.284 100.320,27.379 100.050,27.324 100.050 C 27.269 100.050,27.084 100.320,26.913 100.650 M374.487 103.452 C 374.658 103.782,374.843 104.052,374.898 104.052 C 374.953 104.052,374.858 103.782,374.687 103.452 C 374.517 103.122,374.332 102.851,374.277 102.851 C 374.222 102.851,374.317 103.122,374.487 103.452 M25.113 103.852 C 24.942 104.182,24.847 104.452,24.902 104.452 C 24.957 104.452,25.142 104.182,25.313 103.852 C 25.483 103.522,25.578 103.252,25.523 103.252 C 25.468 103.252,25.283 103.522,25.113 103.852 M375.588 105.453 C 375.812 105.893,376.041 106.253,376.096 106.253 C 376.151 106.253,376.012 105.893,375.788 105.453 C 375.563 105.013,375.335 104.652,375.280 104.652 C 375.224 104.652,375.363 105.013,375.588 105.453 M23.812 106.253 C 23.587 106.693,23.449 107.054,23.504 107.054 C 23.559 107.054,23.787 106.693,24.012 106.253 C 24.237 105.813,24.375 105.453,24.320 105.453 C 24.265 105.453,24.036 105.813,23.812 106.253 M122.708 106.453 C 122.708 106.838,122.749 106.996,122.799 106.803 C 122.850 106.611,122.850 106.296,122.799 106.103 C 122.749 105.910,122.708 106.068,122.708 106.453 M378.432 110.946 C 379.226 112.537,379.906 113.808,379.944 113.769 C 380.033 113.681,377.220 108.054,377.088 108.054 C 377.034 108.054,377.639 109.356,378.432 110.946 M122.912 108.954 C 122.914 109.395,122.955 109.551,123.003 109.302 C 123.051 109.053,123.049 108.693,122.999 108.502 C 122.949 108.311,122.910 108.514,122.912 108.954 M21.400 110.876 C 20.952 111.768,20.617 112.530,20.657 112.569 C 20.696 112.609,21.107 111.879,21.568 110.948 C 22.030 110.017,22.365 109.255,22.312 109.255 C 22.259 109.255,21.849 109.984,21.400 110.876 M123.161 200.500 C 123.161 248.979,123.184 268.812,123.212 244.572 C 123.240 220.333,123.240 180.668,123.212 156.428 C 123.184 132.189,123.161 152.021,123.161 200.500 M123.561 200.500 C 123.561 248.979,123.584 268.812,123.612 244.572 C 123.640 220.333,123.640 180.668,123.612 156.428 C 123.584 132.189,123.561 152.021,123.561 200.500 M19.042 115.766 C 18.707 116.502,18.771 116.659,19.133 115.990 C 19.303 115.678,19.404 115.385,19.358 115.339 C 19.312 115.293,19.170 115.486,19.042 115.766 M380.807 115.758 C 380.807 115.868,380.980 116.273,381.191 116.658 C 381.401 117.044,381.574 117.269,381.574 117.159 C 381.574 117.049,381.401 116.643,381.191 116.258 C 380.980 115.873,380.807 115.648,380.807 115.758 M308.401 117.659 C 308.401 118.044,308.442 118.202,308.492 118.009 C 308.542 117.816,308.542 117.501,308.492 117.309 C 308.442 117.116,308.401 117.274,308.401 117.659 M18.042 117.968 C 17.706 118.703,17.770 118.860,18.133 118.191 C 18.302 117.879,18.403 117.586,18.357 117.540 C 18.312 117.494,18.169 117.687,18.042 117.968 M308.635 122.461 C 308.635 124.167,308.666 124.865,308.703 124.012 C 308.741 123.159,308.741 121.763,308.703 120.910 C 308.666 120.058,308.635 120.755,308.635 122.461 M270.782 122.661 C 270.782 123.047,270.823 123.204,270.873 123.012 C 270.924 122.819,270.924 122.504,270.873 122.311 C 270.823 122.119,270.782 122.276,270.782 122.661 M308.401 127.464 C 308.401 127.849,308.442 128.007,308.492 127.814 C 308.542 127.621,308.542 127.306,308.492 127.114 C 308.442 126.921,308.401 127.079,308.401 127.464 M270.786 130.565 C 270.788 131.006,270.829 131.162,270.877 130.913 C 270.925 130.664,270.923 130.304,270.873 130.113 C 270.823 129.921,270.784 130.125,270.786 130.565 M11.029 135.687 C 10.906 136.040,10.812 136.427,10.820 136.548 C 10.827 136.669,10.963 136.416,11.120 135.985 C 11.278 135.555,11.372 135.168,11.330 135.125 C 11.287 135.082,11.151 135.335,11.029 135.687 M258.820 158.129 L 258.029 158.979 258.879 158.189 C 259.670 157.453,259.822 157.279,259.670 157.279 C 259.638 157.279,259.255 157.661,258.820 158.129 M294.635 159.730 L 294.047 160.380 294.697 159.792 C 295.304 159.245,295.440 159.080,295.285 159.080 C 295.251 159.080,294.958 159.372,294.635 159.730 M255.818 161.131 L 255.028 161.981 255.878 161.190 C 256.669 160.454,256.820 160.280,256.669 160.280 C 256.636 160.280,256.254 160.663,255.818 161.131 M291.942 162.631 L 290.245 164.382 291.996 162.686 C 292.959 161.753,293.747 160.965,293.747 160.935 C 293.747 160.789,293.517 161.005,291.942 162.631 M288.832 165.533 L 288.244 166.183 288.894 165.595 C 289.501 165.048,289.637 164.882,289.482 164.882 C 289.448 164.882,289.155 165.175,288.832 165.533 M398.045 176.288 C 398.045 176.673,398.087 176.831,398.137 176.638 C 398.187 176.446,398.187 176.131,398.137 175.938 C 398.087 175.745,398.045 175.903,398.045 176.288 M1.847 176.488 C 1.847 176.873,1.889 177.031,1.939 176.838 C 1.989 176.646,1.989 176.331,1.939 176.138 C 1.889 175.945,1.847 176.103,1.847 176.488 M398.246 178.089 C 398.246 178.474,398.287 178.632,398.337 178.439 C 398.387 178.247,398.387 177.931,398.337 177.739 C 398.287 177.546,398.246 177.704,398.246 178.089 M1.647 178.289 C 1.647 178.674,1.688 178.832,1.739 178.639 C 1.789 178.447,1.789 178.132,1.739 177.939 C 1.688 177.746,1.647 177.904,1.647 178.289 M398.446 179.890 C 398.446 180.275,398.487 180.433,398.537 180.240 C 398.587 180.048,398.587 179.732,398.537 179.540 C 398.487 179.347,398.446 179.505,398.446 179.890 M1.451 180.190 C 1.453 180.630,1.494 180.787,1.542 180.538 C 1.590 180.289,1.588 179.929,1.538 179.738 C 1.488 179.546,1.449 179.750,1.451 180.190 M398.650 181.991 C 398.652 182.431,398.693 182.588,398.741 182.339 C 398.789 182.090,398.787 181.730,398.737 181.538 C 398.687 181.347,398.648 181.551,398.650 181.991 M1.251 182.191 C 1.253 182.631,1.294 182.788,1.342 182.539 C 1.390 182.290,1.388 181.930,1.338 181.739 C 1.288 181.547,1.249 181.751,1.251 182.191 M184.242 183.033 C 184.490 183.080,184.895 183.080,185.143 183.033 C 185.390 182.985,185.188 182.946,184.692 182.946 C 184.197 182.946,183.994 182.985,184.242 183.033 M181.241 183.233 C 181.488 183.280,181.893 183.280,182.141 183.233 C 182.389 183.185,182.186 183.146,181.691 183.146 C 181.196 183.146,180.993 183.185,181.241 183.233 M177.739 183.435 C 178.042 183.481,178.537 183.481,178.839 183.435 C 179.142 183.389,178.894 183.352,178.289 183.352 C 177.684 183.352,177.436 183.389,177.739 183.435 M398.857 184.392 C 398.858 184.942,398.897 185.144,398.943 184.840 C 398.989 184.536,398.988 184.085,398.940 183.839 C 398.893 183.593,398.855 183.842,398.857 184.392 M1.055 184.692 C 1.055 185.188,1.094 185.390,1.142 185.143 C 1.189 184.895,1.189 184.490,1.142 184.242 C 1.094 183.994,1.055 184.197,1.055 184.692 M399.062 187.194 C 399.063 187.854,399.100 188.100,399.145 187.740 C 399.189 187.381,399.188 186.840,399.142 186.540 C 399.097 186.239,399.060 186.533,399.062 187.194 M0.862 187.594 C 0.864 188.254,0.901 188.500,0.945 188.140 C 0.990 187.781,0.989 187.241,0.943 186.940 C 0.898 186.639,0.861 186.933,0.862 187.594 M399.270 191.096 C 399.270 192.031,399.304 192.414,399.346 191.946 C 399.388 191.478,399.388 190.713,399.346 190.245 C 399.304 189.777,399.270 190.160,399.270 191.096 M0.671 191.796 C 0.671 192.786,0.705 193.217,0.747 192.752 C 0.788 192.288,0.789 191.478,0.748 190.952 C 0.706 190.425,0.672 190.805,0.671 191.796 M232.933 190.572 C 233.137 190.760,236.318 192.290,236.318 192.201 C 236.318 192.089,233.205 190.495,232.988 190.495 C 232.912 190.495,232.887 190.530,232.933 190.572 M399.488 200.100 C 399.488 203.237,399.516 204.520,399.549 202.951 C 399.583 201.383,399.583 198.817,399.549 197.249 C 399.516 195.680,399.488 196.963,399.488 200.100 M0.486 200.100 C 0.486 202.686,0.515 203.744,0.550 202.451 C 0.584 201.158,0.584 199.042,0.550 197.749 C 0.515 196.456,0.486 197.514,0.486 200.100 M195.948 196.036 C 196.141 196.086,196.456 196.086,196.648 196.036 C 196.841 195.986,196.683 195.944,196.298 195.944 C 195.913 195.944,195.755 195.986,195.948 196.036 M193.649 196.240 C 193.898 196.287,194.258 196.286,194.450 196.236 C 194.641 196.185,194.437 196.146,193.997 196.149 C 193.557 196.151,193.400 196.192,193.649 196.240 M191.046 196.439 C 191.293 196.487,191.698 196.487,191.946 196.439 C 192.194 196.392,191.991 196.353,191.496 196.353 C 191.001 196.353,190.798 196.392,191.046 196.439 M188.244 196.639 C 188.492 196.687,188.897 196.687,189.145 196.639 C 189.392 196.592,189.190 196.553,188.694 196.553 C 188.199 196.553,187.996 196.592,188.244 196.639 M185.145 196.842 C 185.449 196.888,185.900 196.887,186.146 196.839 C 186.392 196.792,186.143 196.754,185.593 196.756 C 185.043 196.757,184.841 196.796,185.145 196.842 M181.044 197.043 C 181.404 197.088,181.944 197.087,182.245 197.041 C 182.545 196.996,182.251 196.959,181.591 196.960 C 180.930 196.962,180.684 196.999,181.044 197.043 M175.538 197.246 C 176.061 197.287,176.916 197.287,177.439 197.246 C 177.961 197.204,177.534 197.171,176.488 197.171 C 175.443 197.171,175.015 197.204,175.538 197.246 M203.152 206.441 C 203.344 206.491,203.659 206.491,203.852 206.441 C 204.045 206.391,203.887 206.350,203.502 206.350 C 203.117 206.350,202.959 206.391,203.152 206.441 M0.671 208.404 C 0.671 209.395,0.705 209.825,0.747 209.361 C 0.788 208.896,0.789 208.086,0.748 207.560 C 0.706 207.034,0.672 207.414,0.671 208.404 M198.949 206.841 C 199.142 206.892,199.457 206.892,199.650 206.841 C 199.842 206.791,199.685 206.750,199.300 206.750 C 198.914 206.750,198.757 206.791,198.949 206.841 M196.451 207.045 C 196.699 207.093,197.060 207.091,197.251 207.041 C 197.442 206.991,197.239 206.952,196.798 206.954 C 196.358 206.956,196.202 206.997,196.451 207.045 M304.252 207.704 C 304.682 208.144,305.079 208.504,305.134 208.504 C 305.189 208.504,304.882 208.144,304.452 207.704 C 304.022 207.264,303.626 206.903,303.571 206.903 C 303.516 206.903,303.822 207.264,304.252 207.704 M193.349 207.247 C 193.654 207.293,194.104 207.292,194.350 207.244 C 194.596 207.197,194.347 207.159,193.797 207.161 C 193.247 207.162,193.045 207.201,193.349 207.247 M189.645 207.448 C 190.003 207.493,190.588 207.493,190.945 207.448 C 191.303 207.404,191.011 207.368,190.295 207.368 C 189.580 207.368,189.287 207.404,189.645 207.448 M186.893 260.020 L 186.893 312.535 185.843 312.609 L 184.792 312.682 185.943 312.719 L 187.094 312.756 187.094 260.130 C 187.094 231.186,187.049 207.504,186.993 207.504 C 186.938 207.504,186.893 231.136,186.893 260.020 M399.270 209.105 C 399.270 210.040,399.304 210.423,399.346 209.955 C 399.388 209.487,399.388 208.722,399.346 208.254 C 399.304 207.786,399.270 208.169,399.270 209.105 M261.631 209.505 C 262.061 209.945,262.457 210.305,262.512 210.305 C 262.567 210.305,262.261 209.945,261.831 209.505 C 261.401 209.065,261.004 208.704,260.949 208.704 C 260.894 208.704,261.201 209.065,261.631 209.505 M307.654 210.905 C 308.640 211.896,309.491 212.706,309.546 212.706 C 309.601 212.706,308.840 211.896,307.854 210.905 C 306.868 209.915,306.016 209.105,305.961 209.105 C 305.906 209.105,306.668 209.915,307.654 210.905 M264.932 212.606 C 265.641 213.322,266.267 213.907,266.322 213.907 C 266.377 213.907,265.842 213.322,265.133 212.606 C 264.424 211.891,263.798 211.306,263.743 211.306 C 263.688 211.306,264.223 211.891,264.932 212.606 M0.862 212.606 C 0.864 213.267,0.901 213.513,0.945 213.153 C 0.990 212.793,0.989 212.253,0.943 211.952 C 0.898 211.652,0.861 211.946,0.862 212.606 M399.062 213.007 C 399.063 213.667,399.100 213.913,399.145 213.553 C 399.189 213.194,399.188 212.653,399.142 212.353 C 399.097 212.052,399.060 212.346,399.062 213.007 M310.755 214.207 C 311.129 214.592,311.479 214.907,311.534 214.907 C 311.589 214.907,311.329 214.592,310.955 214.207 C 310.582 213.822,310.232 213.507,310.177 213.507 C 310.122 213.507,310.382 213.822,310.755 214.207 M1.055 215.508 C 1.055 216.003,1.094 216.206,1.142 215.958 C 1.189 215.710,1.189 215.305,1.142 215.058 C 1.094 214.810,1.055 215.013,1.055 215.508 M267.834 215.708 C 268.264 216.148,268.661 216.508,268.716 216.508 C 268.771 216.508,268.464 216.148,268.034 215.708 C 267.604 215.268,267.207 214.907,267.152 214.907 C 267.097 214.907,267.404 215.268,267.834 215.708 M398.857 215.808 C 398.858 216.358,398.897 216.560,398.943 216.255 C 398.989 215.951,398.988 215.501,398.940 215.255 C 398.893 215.009,398.855 215.258,398.857 215.808 M1.251 218.009 C 1.253 218.449,1.294 218.606,1.342 218.357 C 1.390 218.108,1.388 217.748,1.338 217.556 C 1.288 217.365,1.249 217.569,1.251 218.009 M398.650 218.209 C 398.652 218.649,398.693 218.806,398.741 218.557 C 398.789 218.308,398.787 217.948,398.737 217.757 C 398.687 217.565,398.648 217.769,398.650 218.209 M1.451 220.010 C 1.453 220.450,1.494 220.607,1.542 220.358 C 1.590 220.109,1.588 219.749,1.538 219.557 C 1.488 219.366,1.449 219.570,1.451 220.010 M398.446 220.310 C 398.446 220.695,398.487 220.853,398.537 220.660 C 398.587 220.468,398.587 220.153,398.537 219.960 C 398.487 219.767,398.446 219.925,398.446 220.310 M1.647 221.911 C 1.647 222.296,1.688 222.454,1.739 222.261 C 1.789 222.069,1.789 221.753,1.739 221.561 C 1.688 221.368,1.647 221.526,1.647 221.911 M398.246 222.111 C 398.246 222.496,398.287 222.654,398.337 222.461 C 398.387 222.269,398.387 221.953,398.337 221.761 C 398.287 221.568,398.246 221.726,398.246 222.111 M1.847 223.712 C 1.847 224.097,1.889 224.255,1.939 224.062 C 1.989 223.869,1.989 223.554,1.939 223.362 C 1.889 223.169,1.847 223.327,1.847 223.712 M398.045 223.912 C 398.045 224.297,398.087 224.455,398.137 224.262 C 398.187 224.070,398.187 223.754,398.137 223.562 C 398.087 223.369,398.045 223.527,398.045 223.912 M2.047 225.313 C 2.047 225.698,2.089 225.855,2.139 225.663 C 2.189 225.470,2.189 225.155,2.139 224.962 C 2.089 224.770,2.047 224.927,2.047 225.313 M278.839 231.316 C 279.010 231.646,279.195 231.916,279.250 231.916 C 279.305 231.916,279.210 231.646,279.040 231.316 C 278.869 230.985,278.684 230.715,278.629 230.715 C 278.574 230.715,278.669 230.985,278.839 231.316 M327.624 252.726 C 327.624 253.332,327.661 253.579,327.707 253.277 C 327.753 252.974,327.753 252.479,327.707 252.176 C 327.661 251.873,327.624 252.121,327.624 252.726 M286.390 256.328 C 286.390 256.713,286.431 256.871,286.481 256.678 C 286.531 256.486,286.531 256.171,286.481 255.978 C 286.431 255.785,286.390 255.943,286.390 256.328 M286.598 258.729 C 286.598 259.225,286.637 259.427,286.684 259.180 C 286.732 258.932,286.732 258.527,286.684 258.279 C 286.637 258.032,286.598 258.234,286.598 258.729 M327.624 260.930 C 327.624 261.536,327.661 261.783,327.707 261.481 C 327.753 261.178,327.753 260.683,327.707 260.380 C 327.661 260.078,327.624 260.325,327.624 260.930 M286.819 263.532 C 286.819 264.797,286.852 265.315,286.891 264.682 C 286.931 264.050,286.931 263.014,286.891 262.381 C 286.852 261.748,286.819 262.266,286.819 263.532 M327.410 263.532 C 327.410 263.917,327.451 264.075,327.502 263.882 C 327.552 263.689,327.552 263.374,327.502 263.182 C 327.451 262.989,327.410 263.147,327.410 263.532 M10.830 263.732 C 10.826 263.897,10.947 264.302,11.098 264.632 C 11.452 265.405,11.457 265.046,11.106 264.132 C 10.957 263.747,10.833 263.567,10.830 263.732 M286.590 267.934 C 286.590 268.319,286.631 268.477,286.681 268.284 C 286.732 268.092,286.732 267.776,286.681 267.584 C 286.631 267.391,286.590 267.549,286.590 267.934 M17.823 281.641 C 17.823 281.751,17.952 282.066,18.109 282.341 C 18.266 282.616,18.395 282.751,18.395 282.641 C 18.395 282.531,18.266 282.216,18.109 281.941 C 17.952 281.666,17.823 281.531,17.823 281.641 M381.126 283.651 C 380.656 284.637,380.722 284.805,381.214 283.873 C 381.437 283.450,381.584 283.068,381.541 283.025 C 381.498 282.982,381.311 283.264,381.126 283.651 M18.826 283.842 C 18.826 283.952,18.999 284.357,19.210 284.742 C 19.420 285.128,19.593 285.353,19.593 285.243 C 19.593 285.133,19.420 284.727,19.210 284.342 C 18.999 283.957,18.826 283.732,18.826 283.842 M378.432 289.254 C 377.639 290.844,377.034 292.146,377.088 292.146 C 377.220 292.146,380.033 286.519,379.944 286.431 C 379.906 286.393,379.226 287.663,378.432 289.254 M20.810 288.016 C 20.810 288.234,22.005 290.545,22.117 290.545 C 22.172 290.545,21.935 289.982,21.590 289.295 C 20.936 287.991,20.810 287.784,20.810 288.016 M122.916 292.346 C 122.916 292.841,122.955 293.044,123.003 292.796 C 123.050 292.549,123.050 292.144,123.003 291.896 C 122.955 291.648,122.916 291.851,122.916 292.346 M275.338 292.646 C 274.852 293.142,274.499 293.547,274.554 293.547 C 274.609 293.547,275.052 293.142,275.538 292.646 C 276.024 292.151,276.376 291.746,276.321 291.746 C 276.266 291.746,275.824 292.151,275.338 292.646 M23.812 293.947 C 24.036 294.387,24.265 294.747,24.320 294.747 C 24.375 294.747,24.237 294.387,24.012 293.947 C 23.787 293.507,23.559 293.147,23.504 293.147 C 23.449 293.147,23.587 293.507,23.812 293.947 M375.688 294.547 C 375.517 294.877,375.422 295.148,375.477 295.148 C 375.532 295.148,375.717 294.877,375.888 294.547 C 376.059 294.217,376.153 293.947,376.098 293.947 C 376.043 293.947,375.859 294.217,375.688 294.547 M122.708 294.947 C 122.708 295.333,122.749 295.490,122.799 295.298 C 122.850 295.105,122.850 294.790,122.799 294.597 C 122.749 294.405,122.708 294.562,122.708 294.947 M272.136 295.848 C 271.650 296.343,271.297 296.748,271.352 296.748 C 271.407 296.748,271.850 296.343,272.336 295.848 C 272.822 295.353,273.175 294.947,273.120 294.947 C 273.065 294.947,272.622 295.353,272.136 295.848 M25.113 296.348 C 25.283 296.678,25.468 296.948,25.523 296.948 C 25.578 296.948,25.483 296.678,25.313 296.348 C 25.142 296.018,24.957 295.748,24.902 295.748 C 24.847 295.748,24.942 296.018,25.113 296.348 M374.487 296.748 C 374.317 297.079,374.222 297.349,374.277 297.349 C 374.332 297.349,374.517 297.079,374.687 296.748 C 374.858 296.418,374.953 296.148,374.898 296.148 C 374.843 296.148,374.658 296.418,374.487 296.748 M311.843 298.999 L 311.256 299.650 311.906 299.062 C 312.512 298.514,312.648 298.349,312.494 298.349 C 312.459 298.349,312.167 298.642,311.843 298.999 M308.950 302.101 L 307.254 303.852 309.005 302.155 C 309.967 301.222,310.755 300.435,310.755 300.405 C 310.755 300.259,310.526 300.475,308.950 302.101 M305.840 305.003 L 305.253 305.653 305.903 305.065 C 306.509 304.517,306.645 304.352,306.491 304.352 C 306.456 304.352,306.164 304.645,305.840 305.003 M32.521 308.668 C 32.707 309.005,33.037 309.500,33.255 309.768 L 33.650 310.255 33.312 309.642 C 33.126 309.304,32.796 308.809,32.578 308.541 L 32.183 308.054 32.521 308.668 M116.949 310.405 L 116.158 311.256 117.009 310.465 C 117.799 309.729,117.951 309.555,117.799 309.555 C 117.767 309.555,117.384 309.937,116.949 310.405 M34.817 312.156 C 35.266 312.816,35.678 313.357,35.733 313.357 C 35.788 313.357,35.466 312.816,35.018 312.156 C 34.569 311.496,34.157 310.955,34.102 310.955 C 34.047 310.955,34.369 311.496,34.817 312.156 M231.066 312.497 C 231.313 312.545,231.718 312.545,231.966 312.497 C 232.214 312.450,232.011 312.411,231.516 312.411 C 231.021 312.411,230.818 312.450,231.066 312.497 M226.769 312.704 C 227.296 312.745,228.106 312.744,228.570 312.702 C 229.035 312.661,228.604 312.627,227.614 312.627 C 226.623 312.628,226.243 312.662,226.769 312.704 M364.182 313.357 C 363.947 313.687,363.800 313.957,363.855 313.957 C 363.910 313.957,364.147 313.687,364.382 313.357 C 364.617 313.027,364.765 312.756,364.710 312.756 C 364.655 312.756,364.417 313.027,364.182 313.357 M36.618 314.757 C 36.853 315.088,37.091 315.358,37.146 315.358 C 37.201 315.358,37.054 315.088,36.818 314.757 C 36.583 314.427,36.346 314.157,36.291 314.157 C 36.236 314.157,36.383 314.427,36.618 314.757 M362.781 315.358 C 362.546 315.688,362.399 315.958,362.454 315.958 C 362.509 315.958,362.746 315.688,362.981 315.358 C 363.217 315.028,363.364 314.757,363.309 314.757 C 363.254 314.757,363.016 315.028,362.781 315.358 M99.402 316.100 C 99.651 316.147,100.011 316.146,100.202 316.095 C 100.394 316.045,100.190 316.006,99.750 316.008 C 99.310 316.011,99.153 316.052,99.402 316.100 M94.604 316.306 C 95.185 316.346,96.086 316.346,96.605 316.305 C 97.124 316.264,96.648 316.231,95.548 316.231 C 94.447 316.232,94.023 316.265,94.604 316.306 M361.781 316.758 C 361.546 317.089,361.398 317.359,361.453 317.359 C 361.509 317.359,361.746 317.089,361.981 316.758 C 362.216 316.428,362.363 316.158,362.308 316.158 C 362.253 316.158,362.016 316.428,361.781 316.758 M88.725 319.660 C 88.726 321.421,88.756 322.114,88.793 321.201 C 88.831 320.288,88.830 318.847,88.793 318.000 C 88.755 317.152,88.725 317.899,88.725 319.660 M38.619 317.559 C 38.854 317.889,39.092 318.159,39.147 318.159 C 39.202 318.159,39.055 317.889,38.819 317.559 C 38.584 317.229,38.347 316.958,38.292 316.958 C 38.237 316.958,38.384 317.229,38.619 317.559 M89.102 321.861 C 89.103 322.411,89.142 322.613,89.188 322.308 C 89.234 322.004,89.233 321.554,89.185 321.308 C 89.138 321.062,89.100 321.311,89.102 321.861 M45.423 326.363 C 45.883 326.913,46.305 327.364,46.360 327.364 C 46.415 327.364,46.084 326.913,45.623 326.363 C 45.162 325.813,44.740 325.363,44.685 325.363 C 44.630 325.363,44.962 325.813,45.423 326.363 M248.574 327.902 C 248.767 327.952,249.082 327.952,249.275 327.902 C 249.467 327.851,249.310 327.810,248.924 327.810 C 248.539 327.810,248.382 327.851,248.574 327.902 M246.476 328.106 C 246.724 328.153,247.085 328.152,247.276 328.101 C 247.467 328.051,247.264 328.012,246.823 328.014 C 246.383 328.017,246.227 328.058,246.476 328.106 M243.575 328.308 C 243.879 328.354,244.329 328.352,244.575 328.305 C 244.821 328.257,244.572 328.220,244.022 328.221 C 243.472 328.223,243.270 328.262,243.575 328.308 M239.370 328.510 C 239.782 328.553,240.458 328.553,240.870 328.510 C 241.283 328.467,240.945 328.431,240.120 328.431 C 239.295 328.431,238.957 328.467,239.370 328.510 M47.424 328.827 C 47.424 328.861,47.716 329.154,48.074 329.477 L 48.724 330.065 48.137 329.415 C 47.589 328.809,47.424 328.672,47.424 328.827 M350.765 330.715 L 350.075 331.466 350.825 330.776 C 351.238 330.397,351.576 330.059,351.576 330.026 C 351.576 329.873,351.406 330.017,350.765 330.715 M48.624 330.228 C 48.624 330.262,48.917 330.555,49.275 330.878 L 49.925 331.466 49.337 330.815 C 48.789 330.209,48.624 330.073,48.624 330.228 M349.364 332.316 L 348.674 333.067 349.425 332.377 C 349.837 331.998,350.175 331.660,350.175 331.627 C 350.175 331.474,350.006 331.618,349.364 332.316 M50.625 332.466 C 50.999 332.851,51.349 333.167,51.404 333.167 C 51.459 333.167,51.199 332.851,50.825 332.466 C 50.452 332.081,50.102 331.766,50.047 331.766 C 49.992 331.766,50.252 332.081,50.625 332.466 M347.664 334.217 L 346.873 335.068 347.724 334.277 C 348.515 333.541,348.666 333.367,348.515 333.367 C 348.482 333.367,348.099 333.749,347.664 334.217 M52.526 334.567 C 53.068 335.118,53.557 335.568,53.612 335.568 C 53.667 335.568,53.268 335.118,52.726 334.567 C 52.184 334.017,51.696 333.567,51.641 333.567 C 51.586 333.567,51.984 334.017,52.526 334.567 M345.068 337.019 L 343.472 338.669 345.123 337.073 C 346.656 335.591,346.865 335.368,346.719 335.368 C 346.689 335.368,345.946 336.111,345.068 337.019 M55.428 337.669 C 56.469 338.714,57.366 339.570,57.421 339.570 C 57.476 339.570,56.669 338.714,55.628 337.669 C 54.587 336.623,53.690 335.768,53.635 335.768 C 53.580 335.768,54.387 336.623,55.428 337.669 M186.944 338.069 C 186.946 338.509,186.987 338.666,187.035 338.417 C 187.083 338.168,187.081 337.808,187.031 337.616 C 186.981 337.425,186.942 337.629,186.944 338.069 M225.959 339.570 C 225.959 339.955,226.001 340.113,226.051 339.920 C 226.101 339.727,226.101 339.412,226.051 339.220 C 226.001 339.027,225.959 339.185,225.959 339.570 M340.970 341.271 C 340.151 342.096,339.525 342.771,339.580 342.771 C 339.635 342.771,340.351 342.096,341.171 341.271 C 341.990 340.445,342.616 339.770,342.561 339.770 C 342.506 339.770,341.790 340.445,340.970 341.271 M186.740 340.570 C 186.740 340.955,186.781 341.113,186.831 340.920 C 186.882 340.728,186.882 340.413,186.831 340.220 C 186.781 340.028,186.740 340.185,186.740 340.570 M62.431 344.672 C 63.472 345.718,64.369 346.573,64.424 346.573 C 64.479 346.573,63.672 345.718,62.631 344.672 C 61.590 343.627,60.693 342.771,60.638 342.771 C 60.583 342.771,61.390 343.627,62.431 344.672 M336.864 345.223 L 335.268 346.873 336.918 345.277 C 338.452 343.795,338.661 343.572,338.515 343.572 C 338.484 343.572,337.742 344.315,336.864 345.223 M65.624 347.624 C 66.115 348.147,66.543 348.574,66.575 348.574 C 66.725 348.574,66.566 348.395,65.683 347.565 L 64.732 346.673 65.624 347.624 M333.967 347.874 C 333.481 348.369,333.128 348.774,333.183 348.774 C 333.238 348.774,333.681 348.369,334.167 347.874 C 334.653 347.379,335.006 346.973,334.951 346.973 C 334.896 346.973,334.453 347.379,333.967 347.874 M67.634 349.475 C 68.007 349.860,68.358 350.175,68.413 350.175 C 68.468 350.175,68.207 349.860,67.834 349.475 C 67.461 349.090,67.110 348.774,67.055 348.774 C 67.000 348.774,67.260 349.090,67.634 349.475 M331.955 349.725 L 331.266 350.475 332.016 349.786 C 332.714 349.144,332.858 348.974,332.706 348.974 C 332.672 348.974,332.334 349.312,331.955 349.725 M69.235 350.875 C 69.608 351.261,69.958 351.576,70.013 351.576 C 70.069 351.576,69.808 351.261,69.435 350.875 C 69.061 350.490,68.711 350.175,68.656 350.175 C 68.601 350.175,68.861 350.490,69.235 350.875 M330.453 351.026 L 329.865 351.676 330.515 351.088 C 331.121 350.540,331.258 350.375,331.103 350.375 C 331.069 350.375,330.776 350.668,330.453 351.026 M70.235 351.638 C 70.235 351.673,70.528 351.965,70.885 352.289 L 71.536 352.876 70.948 352.226 C 70.400 351.620,70.235 351.484,70.235 351.638 M322.061 357.901 L 321.261 358.617 322.111 357.981 C 322.843 357.434,323.107 357.170,322.911 357.182 C 322.884 357.183,322.501 357.507,322.061 357.901 M77.839 357.845 C 77.839 357.900,78.199 358.231,78.639 358.579 C 79.080 358.928,79.440 359.168,79.440 359.113 C 79.440 359.058,79.080 358.728,78.639 358.379 C 78.199 358.031,77.839 357.790,77.839 357.845 M244.475 359.121 C 244.723 359.169,245.084 359.167,245.275 359.117 C 245.466 359.067,245.263 359.028,244.822 359.030 C 244.382 359.032,244.226 359.073,244.475 359.121 M248.274 359.327 C 248.852 359.368,249.797 359.368,250.375 359.327 C 250.953 359.287,250.480 359.254,249.325 359.254 C 248.169 359.254,247.696 359.287,248.274 359.327 M167.236 359.921 C 167.485 359.969,167.845 359.967,168.036 359.917 C 168.228 359.867,168.024 359.828,167.584 359.830 C 167.144 359.833,166.987 359.874,167.236 359.921 M163.532 360.126 C 163.944 360.169,164.620 360.169,165.033 360.126 C 165.445 360.083,165.108 360.047,164.282 360.047 C 163.457 360.047,163.119 360.083,163.532 360.126 M84.842 363.054 C 84.842 363.109,85.113 363.347,85.443 363.582 C 85.773 363.817,86.043 363.964,86.043 363.909 C 86.043 363.854,85.773 363.617,85.443 363.382 C 85.113 363.147,84.842 362.999,84.842 363.054 M312.206 365.002 C 311.738 365.334,311.356 365.649,311.356 365.703 C 311.356 365.758,311.761 365.523,312.256 365.183 C 312.751 364.842,313.157 364.522,313.157 364.473 C 313.157 364.335,313.119 364.356,312.206 365.002 M87.444 364.872 C 87.444 364.927,88.232 365.499,89.195 366.142 C 91.143 367.444,91.654 367.753,91.346 367.440 C 91.031 367.121,87.444 364.760,87.444 364.872 M308.451 367.512 C 307.430 368.189,307.070 368.546,307.867 368.091 C 308.569 367.691,309.505 366.995,309.351 366.988 C 309.294 366.985,308.889 367.221,308.451 367.512 M93.147 368.688 C 93.367 368.867,93.727 369.102,93.947 369.210 L 94.347 369.407 93.947 369.081 C 93.727 368.902,93.367 368.667,93.147 368.559 L 92.746 368.362 93.147 368.688 M299.300 373.101 C 298.552 373.507,298.597 373.676,299.350 373.287 C 299.680 373.116,299.950 372.934,299.950 372.881 C 299.950 372.753,299.928 372.760,299.300 373.101 M297.899 373.901 C 297.151 374.307,297.196 374.476,297.949 374.087 C 298.279 373.916,298.549 373.734,298.549 373.682 C 298.549 373.553,298.528 373.560,297.899 373.901 M296.098 374.902 C 295.350 375.308,295.396 375.477,296.148 375.088 C 296.478 374.917,296.748 374.734,296.748 374.682 C 296.748 374.553,296.727 374.561,296.098 374.902 M293.697 376.202 C 293.284 376.420,292.946 376.643,292.946 376.697 C 292.946 376.752,293.307 376.613,293.747 376.388 C 294.187 376.164,294.547 375.937,294.547 375.884 C 294.547 375.753,294.546 375.754,293.697 376.202 M105.853 376.080 C 105.853 376.135,106.213 376.364,106.653 376.588 C 107.094 376.813,107.454 376.952,107.454 376.897 C 107.454 376.842,107.094 376.613,106.653 376.388 C 106.213 376.164,105.853 376.025,105.853 376.080 M115.058 380.790 C 115.443 381.001,115.848 381.174,115.958 381.174 C 116.068 381.174,115.843 381.001,115.458 380.790 C 115.073 380.580,114.667 380.407,114.557 380.407 C 114.447 380.407,114.672 380.580,115.058 380.790 M284.142 380.990 C 283.757 381.201,283.532 381.374,283.642 381.374 C 283.752 381.374,284.157 381.201,284.542 380.990 C 284.927 380.780,285.153 380.607,285.043 380.607 C 284.932 380.607,284.527 380.780,284.142 380.990 M281.741 382.091 C 281.466 382.248,281.331 382.377,281.441 382.377 C 281.551 382.377,281.866 382.248,282.141 382.091 C 282.416 381.934,282.551 381.805,282.441 381.805 C 282.331 381.805,282.016 381.934,281.741 382.091 M119.660 382.891 C 119.935 383.049,120.250 383.177,120.360 383.177 C 120.470 383.177,120.335 383.049,120.060 382.891 C 119.785 382.734,119.470 382.605,119.360 382.605 C 119.250 382.605,119.385 382.734,119.660 382.891 M174.737 398.137 C 174.930 398.187,175.245 398.187,175.438 398.137 C 175.630 398.087,175.473 398.045,175.088 398.045 C 174.702 398.045,174.545 398.087,174.737 398.137 M176.338 398.337 C 176.531 398.387,176.846 398.387,177.039 398.337 C 177.231 398.287,177.074 398.246,176.688 398.246 C 176.303 398.246,176.146 398.287,176.338 398.337 M222.961 398.337 C 223.154 398.387,223.469 398.387,223.662 398.337 C 223.854 398.287,223.697 398.246,223.312 398.246 C 222.926 398.246,222.769 398.287,222.961 398.337 M178.139 398.537 C 178.332 398.587,178.647 398.587,178.839 398.537 C 179.032 398.487,178.874 398.446,178.489 398.446 C 178.104 398.446,177.946 398.487,178.139 398.537 M221.161 398.537 C 221.353 398.587,221.668 398.587,221.861 398.537 C 222.054 398.487,221.896 398.446,221.511 398.446 C 221.126 398.446,220.968 398.487,221.161 398.537 M180.042 398.741 C 180.291 398.789,180.651 398.787,180.843 398.737 C 181.034 398.687,180.830 398.648,180.390 398.650 C 179.950 398.652,179.793 398.693,180.042 398.741 M219.262 398.741 C 219.511 398.789,219.871 398.787,220.062 398.737 C 220.254 398.687,220.050 398.648,219.610 398.650 C 219.170 398.652,219.013 398.693,219.262 398.741 M182.243 398.941 C 182.492 398.989,182.853 398.987,183.044 398.937 C 183.235 398.887,183.032 398.848,182.591 398.850 C 182.151 398.852,181.995 398.893,182.243 398.941 M217.061 398.941 C 217.310 398.989,217.670 398.987,217.861 398.937 C 218.053 398.887,217.849 398.848,217.409 398.850 C 216.968 398.852,216.812 398.893,217.061 398.941 M184.745 399.143 C 185.049 399.189,185.500 399.188,185.746 399.140 C 185.992 399.093,185.743 399.055,185.193 399.057 C 184.642 399.058,184.441 399.097,184.745 399.143 M214.357 399.143 C 214.660 399.189,215.155 399.189,215.458 399.143 C 215.760 399.097,215.513 399.059,214.907 399.059 C 214.302 399.059,214.055 399.097,214.357 399.143 M187.444 399.344 C 187.801 399.389,188.387 399.389,188.744 399.344 C 189.102 399.300,188.809 399.264,188.094 399.264 C 187.379 399.264,187.086 399.300,187.444 399.344 M211.256 399.344 C 211.613 399.389,212.199 399.389,212.556 399.344 C 212.914 399.300,212.621 399.264,211.906 399.264 C 211.191 399.264,210.898 399.300,211.256 399.344 M191.653 399.547 C 192.234 399.588,193.134 399.588,193.654 399.547 C 194.173 399.505,193.697 399.472,192.596 399.473 C 191.496 399.473,191.071 399.507,191.653 399.547 M206.460 399.547 C 207.041 399.588,207.942 399.588,208.461 399.547 C 208.980 399.505,208.504 399.472,207.404 399.473 C 206.303 399.473,205.878 399.507,206.460 399.547 M198.541 399.748 C 199.279 399.786,200.539 399.787,201.342 399.749 C 202.145 399.710,201.541 399.679,200.000 399.679 C 198.459 399.678,197.802 399.710,198.541 399.748 " stroke="none" fill="#0c2f78" fill-rule="evenodd"></path><path id="path3" d="M159.369 39.674 C 159.316 39.814,159.296 41.953,159.326 44.427 L 159.380 48.924 161.081 48.936 L 162.781 48.948 161.131 48.878 L 159.480 48.809 159.480 44.214 L 159.480 39.620 206.300 39.620 L 253.120 39.620 253.177 44.772 L 253.234 49.925 253.280 44.672 L 253.327 39.420 206.397 39.420 C 168.593 39.420,159.448 39.469,159.369 39.674 M165.633 49.166 C 165.880 49.213,166.286 49.213,166.533 49.166 C 166.781 49.118,166.578 49.079,166.083 49.079 C 165.588 49.079,165.385 49.118,165.633 49.166 M245.973 49.968 C 246.276 50.014,246.771 50.014,247.074 49.968 C 247.376 49.922,247.129 49.885,246.523 49.885 C 245.918 49.885,245.670 49.922,245.973 49.968 M181.591 54.627 C 182.133 55.178,182.621 55.628,182.676 55.628 C 182.731 55.628,182.333 55.178,181.791 54.627 C 181.249 54.077,180.760 53.627,180.705 53.627 C 180.650 53.627,181.049 54.077,181.591 54.627 M230.915 55.128 C 230.429 55.623,230.077 56.028,230.132 56.028 C 230.187 56.028,230.630 55.623,231.116 55.128 C 231.602 54.632,231.954 54.227,231.899 54.227 C 231.844 54.227,231.402 54.632,230.915 55.128 M187.351 70.335 C 187.352 70.885,187.391 71.087,187.437 70.783 C 187.483 70.478,187.482 70.028,187.435 69.782 C 187.387 69.536,187.349 69.785,187.351 70.335 M225.346 71.386 L 225.313 72.236 231.166 72.189 L 237.019 72.142 231.278 72.086 L 225.537 72.030 225.458 71.283 L 225.380 70.535 225.346 71.386 M113.823 72.186 C 127.396 72.214,149.547 72.214,163.048 72.186 C 176.548 72.158,165.443 72.134,138.369 72.134 C 111.296 72.134,100.250 72.158,113.823 72.186 M240.573 72.380 C 240.877 72.426,241.327 72.424,241.574 72.377 C 241.820 72.329,241.571 72.292,241.021 72.293 C 240.470 72.295,240.269 72.334,240.573 72.380 M243.572 72.574 C 243.764 72.624,244.080 72.624,244.272 72.574 C 244.465 72.524,244.307 72.483,243.922 72.483 C 243.537 72.483,243.379 72.524,243.572 72.574 M245.773 72.774 C 245.965 72.825,246.281 72.825,246.473 72.774 C 246.666 72.724,246.508 72.683,246.123 72.683 C 245.738 72.683,245.580 72.724,245.773 72.774 M90.403 82.590 C 91.095 82.629,92.176 82.628,92.804 82.589 C 93.433 82.549,92.866 82.517,91.546 82.518 C 90.225 82.518,89.711 82.550,90.403 82.590 M97.502 82.785 C 97.806 82.831,98.256 82.830,98.502 82.782 C 98.748 82.735,98.499 82.697,97.949 82.699 C 97.399 82.700,97.197 82.739,97.502 82.785 M100.403 82.983 C 100.651 83.031,101.012 83.029,101.203 82.979 C 101.394 82.929,101.191 82.890,100.750 82.892 C 100.310 82.894,100.154 82.935,100.403 82.983 M228.764 84.586 C 229.067 84.631,229.562 84.631,229.865 84.586 C 230.168 84.540,229.920 84.502,229.315 84.502 C 228.709 84.502,228.462 84.540,228.764 84.586 M161.580 186.293 C 161.580 242.256,161.603 265.150,161.631 237.169 C 161.659 209.187,161.659 163.399,161.631 135.418 C 161.603 107.436,161.580 130.330,161.580 186.293 M293.747 90.108 C 293.747 90.142,294.040 90.435,294.397 90.758 L 295.048 91.346 294.460 90.695 C 293.912 90.089,293.747 89.953,293.747 90.108 M297.349 93.709 C 297.349 93.744,297.641 94.037,297.999 94.360 L 298.649 94.947 298.062 94.297 C 297.514 93.691,297.349 93.555,297.349 93.709 M225.362 135.918 C 225.315 175.586,225.330 177.689,225.663 177.686 C 225.912 177.684,225.941 177.637,225.763 177.524 C 225.565 177.399,225.503 168.739,225.463 135.756 L 225.412 94.147 225.362 135.918 M260.230 97.249 C 260.772 97.799,261.261 98.249,261.316 98.249 C 261.371 98.249,260.972 97.799,260.430 97.249 C 259.888 96.698,259.400 96.248,259.345 96.248 C 259.290 96.248,259.688 96.698,260.230 97.249 M123.312 107.554 C 123.314 107.994,123.355 108.151,123.403 107.902 C 123.451 107.653,123.449 107.293,123.399 107.101 C 123.349 106.910,123.310 107.114,123.312 107.554 M123.526 111.256 C 123.526 111.971,123.562 112.264,123.606 111.906 C 123.651 111.548,123.651 110.963,123.606 110.605 C 123.562 110.248,123.526 110.540,123.526 111.256 M308.011 118.959 C 308.013 119.510,308.052 119.711,308.098 119.407 C 308.144 119.103,308.142 118.653,308.095 118.406 C 308.047 118.160,308.010 118.409,308.011 118.959 M271.417 126.663 C 271.417 128.479,271.447 129.222,271.485 128.314 C 271.522 127.406,271.522 125.920,271.485 125.013 C 271.447 124.105,271.417 124.847,271.417 126.663 M308.014 125.863 C 308.014 126.468,308.051 126.716,308.097 126.413 C 308.143 126.111,308.143 125.615,308.097 125.313 C 308.051 125.010,308.014 125.258,308.014 125.863 M271.182 131.666 C 271.182 132.051,271.223 132.209,271.274 132.016 C 271.324 131.823,271.324 131.508,271.274 131.316 C 271.223 131.123,271.182 131.281,271.182 131.666 M266.233 148.474 C 266.062 148.804,265.968 149.075,266.023 149.075 C 266.078 149.075,266.262 148.804,266.433 148.474 C 266.604 148.144,266.699 147.874,266.644 147.874 C 266.589 147.874,266.404 148.144,266.233 148.474 M257.729 159.980 C 256.909 160.805,256.283 161.481,256.338 161.481 C 256.393 161.481,257.109 160.805,257.929 159.980 C 258.749 159.155,259.375 158.479,259.320 158.479 C 259.265 158.479,258.549 159.155,257.729 159.980 M293.039 160.730 L 292.046 161.781 293.097 160.788 C 293.674 160.242,294.147 159.769,294.147 159.737 C 294.147 159.588,293.962 159.754,293.039 160.730 M289.837 163.932 L 288.844 164.982 289.895 163.990 C 290.473 163.443,290.945 162.971,290.945 162.939 C 290.945 162.790,290.760 162.956,289.837 163.932 M185.843 183.433 C 186.091 183.481,186.496 183.481,186.743 183.433 C 186.991 183.385,186.788 183.346,186.293 183.346 C 185.798 183.346,185.595 183.385,185.843 183.433 M182.744 183.635 C 183.048 183.681,183.499 183.680,183.745 183.633 C 183.991 183.585,183.742 183.547,183.192 183.549 C 182.641 183.550,182.440 183.589,182.744 183.635 M179.543 183.835 C 179.847 183.881,180.297 183.880,180.543 183.833 C 180.789 183.785,180.540 183.748,179.990 183.749 C 179.440 183.751,179.238 183.789,179.543 183.835 M175.013 184.050 C 174.960 184.137,175.247 184.177,175.652 184.139 C 176.889 184.022,177.035 183.940,176.050 183.915 C 175.534 183.902,175.067 183.963,175.013 184.050 M196.948 195.436 C 197.141 195.486,197.456 195.486,197.649 195.436 C 197.841 195.385,197.684 195.344,197.299 195.344 C 196.913 195.344,196.756 195.385,196.948 195.436 M194.747 195.636 C 194.940 195.686,195.255 195.686,195.448 195.636 C 195.640 195.585,195.483 195.544,195.098 195.544 C 194.712 195.544,194.555 195.585,194.747 195.636 M192.449 195.839 C 192.697 195.887,193.058 195.885,193.249 195.835 C 193.440 195.785,193.237 195.746,192.796 195.748 C 192.356 195.751,192.200 195.792,192.449 195.839 M189.645 196.039 C 189.892 196.087,190.298 196.087,190.545 196.039 C 190.793 195.991,190.590 195.952,190.095 195.952 C 189.600 195.952,189.397 195.991,189.645 196.039 M186.843 196.239 C 187.091 196.287,187.496 196.287,187.744 196.239 C 187.991 196.192,187.789 196.153,187.294 196.153 C 186.798 196.153,186.596 196.192,186.843 196.239 M183.442 196.439 C 183.689 196.487,184.095 196.487,184.342 196.439 C 184.590 196.392,184.387 196.353,183.892 196.353 C 183.397 196.353,183.194 196.392,183.442 196.439 M178.835 196.643 C 179.190 196.687,179.820 196.688,180.236 196.644 C 180.651 196.601,180.360 196.565,179.590 196.564 C 178.819 196.563,178.480 196.598,178.835 196.643 M171.236 196.847 C 172.034 196.885,173.339 196.885,174.137 196.847 C 174.935 196.809,174.282 196.778,172.686 196.778 C 171.091 196.778,170.438 196.809,171.236 196.847 M225.062 203.666 C 225.261 203.792,225.322 215.073,225.363 258.541 L 225.413 313.257 225.463 258.379 C 225.510 206.228,225.495 203.502,225.163 203.505 C 224.913 203.507,224.884 203.553,225.062 203.666 M302.551 206.766 C 302.551 206.800,302.844 207.093,303.202 207.416 L 303.852 208.004 303.264 207.354 C 302.716 206.747,302.551 206.611,302.551 206.766 M202.151 207.041 C 202.344 207.092,202.659 207.092,202.851 207.041 C 203.044 206.991,202.886 206.950,202.501 206.950 C 202.116 206.950,201.958 206.991,202.151 207.041 M199.950 207.241 C 200.143 207.292,200.458 207.292,200.650 207.241 C 200.843 207.191,200.685 207.150,200.300 207.150 C 199.915 207.150,199.757 207.191,199.950 207.241 M197.749 207.442 C 197.941 207.492,198.257 207.492,198.449 207.442 C 198.642 207.391,198.484 207.350,198.099 207.350 C 197.714 207.350,197.556 207.391,197.749 207.442 M195.050 207.645 C 195.299 207.693,195.659 207.691,195.850 207.641 C 196.042 207.591,195.838 207.552,195.398 207.554 C 194.957 207.556,194.801 207.597,195.050 207.645 M260.330 207.566 C 260.330 207.601,260.623 207.893,260.980 208.217 L 261.631 208.804 261.043 208.154 C 260.495 207.548,260.330 207.412,260.330 207.566 M191.746 207.847 C 192.049 207.893,192.544 207.893,192.846 207.847 C 193.149 207.801,192.901 207.764,192.296 207.764 C 191.691 207.764,191.443 207.801,191.746 207.847 M187.947 208.048 C 188.251 208.094,188.701 208.092,188.947 208.045 C 189.193 207.997,188.944 207.960,188.394 207.961 C 187.844 207.963,187.643 208.002,187.947 208.048 M305.453 209.505 C 306.106 210.165,306.686 210.705,306.741 210.705 C 306.796 210.705,306.306 210.165,305.653 209.505 C 304.999 208.844,304.420 208.304,304.365 208.304 C 304.310 208.304,304.799 208.844,305.453 209.505 M263.332 210.405 C 264.041 211.121,264.666 211.706,264.721 211.706 C 264.776 211.706,264.241 211.121,263.532 210.405 C 262.823 209.690,262.198 209.105,262.143 209.105 C 262.088 209.105,262.623 209.690,263.332 210.405 M309.055 213.107 C 309.708 213.767,310.288 214.307,310.343 214.307 C 310.398 214.307,309.908 213.767,309.255 213.107 C 308.601 212.446,308.022 211.906,307.967 211.906 C 307.911 211.906,308.401 212.446,309.055 213.107 M266.933 214.007 C 267.642 214.722,268.268 215.308,268.323 215.308 C 268.378 215.308,267.843 214.722,267.134 214.007 C 266.425 213.292,265.799 212.706,265.744 212.706 C 265.689 212.706,266.224 213.292,266.933 214.007 M327.014 251.226 C 327.016 251.666,327.057 251.822,327.105 251.573 C 327.153 251.325,327.151 250.964,327.101 250.773 C 327.051 250.582,327.012 250.785,327.014 251.226 M327.246 256.828 C 327.246 258.809,327.276 259.593,327.313 258.569 C 327.349 257.546,327.349 255.925,327.312 254.967 C 327.276 254.010,327.246 254.847,327.246 256.828 M286.994 257.229 C 286.996 257.669,287.037 257.825,287.085 257.576 C 287.133 257.328,287.131 256.967,287.081 256.776 C 287.031 256.585,286.992 256.788,286.994 257.229 M287.206 260.230 C 287.207 260.890,287.244 261.136,287.289 260.777 C 287.333 260.417,287.332 259.877,287.287 259.576 C 287.241 259.276,287.204 259.570,287.206 260.230 M327.014 262.431 C 327.016 262.871,327.057 263.028,327.105 262.779 C 327.153 262.530,327.151 262.170,327.101 261.979 C 327.051 261.787,327.012 261.991,327.014 262.431 M287.198 266.533 C 287.198 267.029,287.237 267.231,287.285 266.983 C 287.332 266.736,287.332 266.331,287.285 266.083 C 287.237 265.835,287.198 266.038,287.198 266.533 M123.527 289.845 C 123.528 290.615,123.564 290.906,123.608 290.491 C 123.651 290.076,123.650 289.445,123.606 289.090 C 123.562 288.735,123.527 289.075,123.527 289.845 M161.731 290.645 C 161.734 291.086,161.775 291.242,161.822 290.993 C 161.870 290.744,161.868 290.384,161.818 290.193 C 161.768 290.001,161.729 290.205,161.731 290.645 M274.133 294.697 L 272.436 296.448 274.187 294.752 C 275.813 293.176,276.029 292.946,275.884 292.946 C 275.854 292.946,275.066 293.734,274.133 294.697 M123.308 293.747 C 123.308 294.132,123.349 294.290,123.400 294.097 C 123.450 293.904,123.450 293.589,123.400 293.397 C 123.349 293.204,123.308 293.362,123.308 293.747 M310.148 300.100 L 309.055 301.251 310.205 300.157 C 310.838 299.555,311.356 299.038,311.356 299.006 C 311.356 298.858,311.164 299.031,310.148 300.100 M307.047 303.202 L 305.853 304.452 307.104 303.258 C 307.791 302.601,308.354 302.038,308.354 302.007 C 308.354 301.859,308.157 302.040,307.047 303.202 M168.076 306.603 C 168.905 307.487,169.085 307.646,169.085 307.495 C 169.085 307.463,168.657 307.036,168.134 306.545 L 167.184 305.653 168.076 306.603 M184.042 313.098 C 184.290 313.145,184.695 313.145,184.942 313.098 C 185.190 313.050,184.987 313.011,184.492 313.011 C 183.997 313.011,183.794 313.050,184.042 313.098 M229.365 313.100 C 229.667 313.146,230.163 313.146,230.465 313.100 C 230.768 313.054,230.520 313.016,229.915 313.016 C 229.310 313.016,229.062 313.054,229.365 313.100 M100.700 316.496 C 100.893 316.546,101.208 316.546,101.401 316.496 C 101.593 316.446,101.436 316.405,101.051 316.405 C 100.665 316.405,100.508 316.446,100.700 316.496 M97.499 316.702 C 97.801 316.747,98.297 316.747,98.599 316.702 C 98.902 316.656,98.654 316.618,98.049 316.618 C 97.444 316.618,97.196 316.656,97.499 316.702 M90.486 316.907 C 91.225 316.945,92.485 316.945,93.288 316.907 C 94.091 316.869,93.487 316.838,91.946 316.837 C 90.405 316.837,89.748 316.868,90.486 316.907 M89.088 325.413 L 89.045 328.164 163.932 328.114 L 238.819 328.065 164.038 328.014 L 89.256 327.963 89.194 325.312 L 89.132 322.661 89.088 325.413 M247.574 327.502 C 247.766 327.552,248.082 327.552,248.274 327.502 C 248.467 327.451,248.309 327.410,247.924 327.410 C 247.539 327.410,247.381 327.451,247.574 327.502 M245.275 327.705 C 245.524 327.753,245.884 327.751,246.075 327.701 C 246.267 327.651,246.063 327.612,245.623 327.614 C 245.183 327.616,245.026 327.657,245.275 327.705 M241.971 327.907 C 242.274 327.953,242.769 327.953,243.072 327.907 C 243.374 327.861,243.127 327.824,242.521 327.824 C 241.916 327.824,241.668 327.861,241.971 327.907 M206.440 337.918 L 225.286 337.971 225.369 338.420 C 225.440 338.809,225.449 338.802,225.432 338.369 L 225.413 337.869 206.503 337.867 L 187.594 337.866 206.440 337.918 M187.351 339.270 C 187.352 339.820,187.391 340.021,187.437 339.717 C 187.483 339.413,187.482 338.963,187.435 338.717 C 187.387 338.470,187.349 338.719,187.351 339.270 M230.907 354.427 C 231.736 355.311,231.916 355.470,231.916 355.319 C 231.916 355.287,231.488 354.859,230.965 354.369 L 230.015 353.477 230.907 354.427 M181.484 355.128 L 180.390 356.278 181.541 355.184 C 182.174 354.583,182.691 354.065,182.691 354.034 C 182.691 353.885,182.500 354.059,181.484 355.128 M177.689 357.779 C 177.304 357.990,177.060 358.166,177.149 358.171 C 177.361 358.182,178.489 357.595,178.489 357.474 C 178.489 357.343,178.478 357.347,177.689 357.779 M243.372 359.518 C 243.564 359.568,243.879 359.568,244.072 359.518 C 244.265 359.467,244.107 359.426,243.722 359.426 C 243.337 359.426,243.179 359.467,243.372 359.518 M245.877 359.725 C 246.236 359.769,246.776 359.768,247.077 359.723 C 247.378 359.677,247.084 359.641,246.423 359.642 C 245.763 359.643,245.517 359.680,245.877 359.725 M253.127 364.882 L 253.127 369.985 206.303 369.985 L 159.480 369.985 159.480 365.390 L 159.480 360.796 161.231 360.725 L 162.981 360.654 161.181 360.667 L 159.380 360.680 159.380 365.383 L 159.380 370.085 206.353 370.135 L 253.327 370.186 253.327 364.983 C 253.327 362.121,253.282 359.780,253.227 359.780 C 253.172 359.780,253.127 362.076,253.127 364.882 M165.736 360.524 C 166.040 360.570,166.490 360.569,166.736 360.521 C 166.982 360.474,166.733 360.436,166.183 360.437 C 165.633 360.439,165.431 360.478,165.736 360.524 " stroke="none" fill="#7c7c7c" fill-rule="evenodd"></path><path id="path4" d="M192.796 0.720 C 75.687 5.816,-11.178 106.967,1.909 223.001 C 14.381 333.582,116.566 412.957,226.913 397.779 C 343.018 381.808,420.326 270.109,394.474 155.678 C 373.498 62.827,287.313 -3.393,192.796 0.720 M253.680 44.672 L 253.627 50.325 248.924 50.448 C 232.837 50.869,227.197 55.751,226.039 70.260 L 225.933 71.586 234.277 71.694 C 282.714 72.323,311.330 93.456,308.574 126.563 C 306.524 151.190,291.400 169.341,262.963 181.302 C 261.350 181.981,260.005 182.558,259.975 182.585 C 259.945 182.612,260.620 182.885,261.476 183.192 C 311.314 201.046,335.502 234.942,325.757 273.272 C 317.876 304.274,285.933 325.670,243.522 328.355 C 241.325 328.494,214.860 328.564,164.429 328.564 L 88.638 328.564 88.691 322.511 L 88.744 316.458 92.746 316.317 C 116.201 315.491,121.488 311.353,122.867 292.746 C 123.282 287.152,123.022 108.083,122.595 105.156 C 120.164 88.484,114.431 83.972,94.697 83.197 L 88.644 82.959 88.644 77.297 L 88.644 71.636 137.796 71.636 L 186.948 71.636 186.814 69.885 C 185.707 55.477,179.924 50.392,163.732 49.588 L 158.879 49.348 158.879 44.184 L 158.879 39.020 206.306 39.020 L 253.733 39.020 253.680 44.672 M162.281 187.749 C 162.281 257.445,162.348 291.001,162.489 292.151 C 164.038 304.814,171.636 311.800,184.616 312.495 L 186.893 312.617 186.893 260.061 C 186.893 208.666,186.902 207.504,187.271 207.504 C 195.452 207.504,219.337 204.674,225.463 202.979 L 225.913 202.855 225.913 257.737 L 225.913 312.619 229.365 312.490 C 247.089 311.828,264.920 304.121,275.419 292.584 C 285.710 281.276,288.937 267.288,285.350 249.532 C 280.616 226.095,263.767 206.400,236.468 192.393 L 232.916 190.570 229.168 191.331 C 215.857 194.035,199.867 196.033,184.492 196.912 C 179.407 197.203,169.427 197.456,169.233 197.298 C 169.150 197.231,170.320 194.119,171.834 190.384 L 174.587 183.592 176.288 183.468 C 177.224 183.399,179.992 183.227,182.441 183.085 L 186.893 182.826 186.943 138.286 L 186.993 93.747 206.403 93.747 L 225.813 93.747 225.863 135.318 C 225.893 159.623,225.988 176.888,226.093 176.888 C 226.525 176.888,233.502 174.396,235.921 173.378 C 259.003 163.660,270.832 147.798,270.832 126.563 C 270.832 104.919,258.082 89.921,236.318 85.965 C 231.287 85.051,230.913 85.043,195.763 85.043 L 162.281 85.043 162.281 187.749 M226.004 339.020 C 227.278 354.922,232.781 359.029,253.277 359.372 L 253.727 359.380 253.727 364.982 L 253.727 370.585 206.303 370.585 L 158.879 370.585 158.879 365.421 L 158.879 360.257 163.732 360.022 C 180.019 359.232,185.884 353.998,186.822 339.420 L 186.954 337.369 206.412 337.369 L 225.871 337.369 226.004 339.020 " stroke="none" fill="#04349c" fill-rule="evenodd"></path></g></svg>