<svg id="svg" version="1.1" xmlns="http://www.w3.org/2000/svg" xmlns:xlink="http://www.w3.org/1999/xlink" width="400" height="437.1875" viewBox="0, 0, 400,437.1875"><g id="svgg"><path id="path0" d="M195.469 22.368 C 194.953 22.440,193.210 22.653,191.595 22.841 C 164.849 25.947,141.349 48.478,137.519 74.688 C 136.853 79.247,137.313 78.750,133.760 78.750 C 104.278 78.750,78.009 101.871,73.542 131.752 L 73.015 135.276 71.742 135.469 C 42.232 139.933,20.750 163.459,18.597 193.672 L 18.391 196.563 27.586 196.563 L 36.781 196.563 36.966 193.514 C 38.546 167.586,63.392 149.121,90.471 153.750 C 110.991 157.258,124.520 172.557,126.422 194.405 L 126.602 196.465 132.257 196.670 C 135.368 196.783,140.515 196.875,143.696 196.875 L 149.478 196.875 149.271 236.016 C 149.156 257.543,149.063 294.176,149.063 317.422 L 149.063 359.688 110.938 359.688 L 72.813 359.688 72.813 367.969 L 72.813 376.250 118.516 376.246 C 143.652 376.243,164.514 376.162,164.876 376.065 C 165.740 375.833,165.866 363.211,166.141 248.834 L 166.344 164.387 168.094 162.877 C 171.457 159.975,176.395 156.718,178.342 156.118 L 179.028 155.906 178.838 266.078 L 178.649 376.250 187.710 376.250 L 196.772 376.250 196.979 342.734 C 197.266 296.564,197.200 146.566,196.890 137.188 C 196.529 126.294,195.266 120.637,191.407 112.633 C 184.652 98.623,170.823 86.925,155.197 82.003 L 153.363 81.425 153.550 79.639 C 154.601 69.578,159.073 60.557,166.852 52.802 C 194.632 25.111,241.325 41.077,246.390 80.000 L 246.573 81.406 243.521 82.451 C 222.502 89.647,207.818 106.193,203.679 127.344 L 203.006 130.781 202.886 242.188 C 202.820 303.461,202.863 358.691,202.982 364.922 L 203.198 376.250 212.068 376.250 L 220.938 376.250 220.938 266.094 C 220.938 205.508,221.011 155.938,221.102 155.938 C 222.343 155.938,229.425 160.615,232.145 163.231 L 233.821 164.844 233.620 202.969 C 233.421 240.592,234.148 375.502,234.552 375.906 C 234.655 376.009,255.470 376.130,280.807 376.175 L 326.875 376.256 326.875 367.972 L 326.875 359.688 288.750 359.688 L 250.625 359.688 250.625 278.281 L 250.625 196.875 256.356 196.875 C 259.508 196.875,264.623 196.783,267.723 196.671 L 273.359 196.467 273.572 193.468 C 275.423 167.401,298.272 149.643,324.913 153.565 C 345.967 156.665,361.433 172.967,362.999 193.709 L 363.215 196.563 372.280 196.563 L 381.345 196.562 381.164 192.729 C 379.829 164.486,356.620 139.321,328.359 135.476 C 327.543 135.365,326.874 135.177,326.873 135.059 C 326.872 134.941,326.666 133.482,326.415 131.818 C 321.962 102.272,297.325 80.096,267.506 78.792 L 262.980 78.594 262.583 75.781 C 258.821 49.102,236.797 27.175,209.531 22.962 C 206.482 22.491,197.339 22.105,195.469 22.368 M139.093 96.871 C 160.544 98.958,177.335 115.522,178.810 136.049 L 178.896 137.254 175.659 138.469 C 158.764 144.814,145.211 158.159,140.624 172.969 C 140.013 174.943,139.817 174.884,138.896 172.447 C 131.417 152.655,113.004 137.410,93.445 134.815 C 91.403 134.544,91.433 134.640,92.197 130.875 C 96.730 108.528,115.918 94.615,139.093 96.871 M269.531 96.889 C 289.990 98.828,306.099 113.806,307.999 132.656 L 308.188 134.531 304.641 135.216 C 284.916 139.026,268.344 153.053,261.231 171.959 C 260.042 175.121,260.120 175.142,258.596 171.250 C 252.628 156.006,239.697 143.738,223.942 138.374 L 220.915 137.344 221.112 135.625 C 223.905 111.286,244.827 94.547,269.531 96.889 M157.439 386.897 C 148.887 387.859,144.414 398.189,148.775 406.908 C 151.309 411.975,157.915 414.361,163.583 412.255 C 165.859 411.409,165.938 411.407,165.938 412.188 C 165.938 412.760,166.146 412.813,168.438 412.813 L 170.938 412.813 170.938 405.938 L 170.938 399.063 165.469 399.063 L 160.000 399.063 160.000 401.082 L 160.000 403.102 162.891 403.191 L 165.781 403.281 165.781 405.000 L 165.781 406.719 164.093 407.623 C 155.995 411.963,148.583 402.324,153.678 394.080 C 156.183 390.027,164.162 390.148,165.193 394.254 C 165.400 395.077,165.736 395.131,167.813 394.677 C 170.927 393.997,170.654 394.223,170.135 392.754 C 168.575 388.331,163.893 386.172,157.439 386.897 M231.281 386.902 C 219.619 388.407,217.260 406.859,228.075 411.983 C 230.635 413.195,235.480 413.403,238.281 412.421 C 249.461 408.499,248.083 388.568,236.525 387.025 C 233.796 386.661,233.248 386.648,231.281 386.902 M74.375 399.974 L 74.375 412.813 76.875 412.813 L 79.375 412.813 79.375 408.014 L 79.375 403.216 83.359 403.000 C 89.103 402.688,90.832 402.060,92.415 399.711 C 94.463 396.673,94.016 391.450,91.515 389.177 C 89.618 387.454,89.093 387.352,81.484 387.241 L 74.375 387.136 74.375 399.974 M98.125 400.000 L 98.125 412.813 107.813 412.813 L 117.500 412.813 117.500 410.625 L 117.500 408.438 110.302 408.438 L 103.105 408.438 103.193 404.922 L 103.281 401.406 109.609 401.322 L 115.938 401.237 115.938 399.212 L 115.938 397.188 109.520 397.188 L 103.102 397.188 103.191 394.297 L 103.281 391.406 110.234 391.322 L 117.188 391.238 117.188 389.213 L 117.188 387.188 107.656 387.188 L 98.125 387.188 98.125 400.000 M122.188 400.014 L 122.188 412.840 124.453 412.748 L 126.719 412.656 126.802 404.243 L 126.885 395.829 132.107 404.321 L 137.328 412.813 139.758 412.813 L 142.188 412.813 142.188 400.000 L 142.188 387.188 140.000 387.188 L 137.813 387.188 137.813 395.625 C 137.813 400.266,137.707 404.059,137.578 404.054 C 137.449 404.050,135.026 400.253,132.193 395.617 L 127.042 387.188 124.615 387.188 L 122.188 387.188 122.188 400.014 M182.907 387.734 C 182.798 388.035,180.623 393.662,178.073 400.239 C 175.524 406.816,173.438 412.341,173.438 412.518 C 173.438 412.718,174.403 412.804,176.011 412.747 L 178.585 412.656 179.651 409.766 L 180.718 406.875 185.930 406.875 L 191.142 406.875 192.240 409.766 L 193.338 412.656 196.074 412.747 C 197.708 412.801,198.767 412.718,198.702 412.541 C 198.643 412.378,196.344 406.608,193.594 399.720 L 188.594 387.195 185.850 387.191 C 183.518 387.188,183.076 387.270,182.907 387.734 M196.129 387.578 C 196.255 387.793,198.373 391.167,200.835 395.076 L 205.313 402.183 205.313 407.511 L 205.313 412.839 207.734 412.748 L 210.156 412.656 210.313 407.031 L 210.469 401.406 214.922 394.443 C 217.371 390.614,219.375 387.409,219.375 387.322 C 219.375 387.235,218.090 387.204,216.519 387.254 L 213.662 387.344 210.815 392.258 C 209.250 394.961,207.898 397.172,207.813 397.172 C 207.727 397.171,206.323 394.925,204.693 392.179 L 201.730 387.188 198.816 387.188 C 196.570 387.188,195.953 387.277,196.129 387.578 M250.075 399.922 L 250.156 412.656 252.422 412.748 L 254.688 412.840 254.709 402.748 C 254.722 396.383,254.835 392.887,255.016 393.281 C 255.173 393.625,256.225 397.633,257.354 402.188 C 258.482 406.742,259.547 411.002,259.718 411.653 L 260.031 412.838 262.437 412.747 L 264.844 412.656 267.394 402.656 L 269.945 392.656 269.972 402.734 L 270.000 412.813 272.344 412.813 L 274.688 412.813 274.688 400.000 L 274.688 387.188 270.859 387.188 L 267.031 387.188 264.873 395.547 C 263.686 400.145,262.622 404.015,262.507 404.147 C 262.393 404.280,261.407 400.975,260.317 396.804 C 259.227 392.632,258.211 388.762,258.059 388.203 L 257.783 387.188 253.888 387.188 L 249.993 387.188 250.075 399.922 M282.594 399.454 C 279.982 406.200,277.752 411.965,277.639 412.266 C 277.453 412.760,277.690 412.813,280.089 412.813 L 282.746 412.813 283.803 409.922 L 284.861 407.031 290.132 407.031 L 295.403 407.031 296.493 409.922 L 297.582 412.813 300.197 412.813 C 301.723 412.813,302.813 412.683,302.813 412.502 C 302.813 412.331,300.544 406.565,297.770 399.689 L 292.728 387.188 290.036 387.189 L 287.344 387.190 282.594 399.454 M305.938 400.000 L 305.938 412.813 308.276 412.813 L 310.615 412.813 310.698 404.394 L 310.781 395.975 315.941 404.316 L 321.100 412.656 323.675 412.747 L 326.250 412.838 326.250 400.013 L 326.250 387.188 323.906 387.188 L 321.563 387.188 321.563 395.692 C 321.563 402.900,321.497 404.127,321.135 403.739 C 320.900 403.487,318.496 399.660,315.793 395.234 L 310.879 387.188 308.408 387.188 L 305.938 387.188 305.938 400.000 M237.350 392.018 C 243.482 395.612,241.263 408.191,234.410 408.687 C 229.261 409.059,226.719 406.136,226.719 399.844 C 226.719 392.447,231.755 388.740,237.350 392.018 M86.594 391.876 C 87.859 392.525,88.423 393.488,88.431 395.009 C 88.444 397.817,86.929 398.750,82.354 398.750 L 79.375 398.750 79.375 394.955 L 79.375 391.160 82.609 391.325 C 84.388 391.416,86.181 391.664,86.594 391.876 M187.614 397.681 C 188.381 399.730,189.105 401.652,189.225 401.953 C 189.424 402.454,189.151 402.500,185.971 402.500 C 184.062 402.500,182.497 402.395,182.494 402.266 C 182.474 401.413,185.763 393.137,185.973 393.513 C 186.110 393.756,186.848 395.632,187.614 397.681 M293.438 402.233 C 293.438 402.380,291.891 402.500,290.000 402.500 C 288.109 402.500,286.563 402.460,286.563 402.411 C 286.563 402.225,289.739 393.607,289.909 393.331 C 290.069 393.073,293.438 401.572,293.438 402.233 " stroke="none" fill="#faea04" fill-rule="evenodd"></path><path id="path1" d="M16.366 1.243 C 8.900 3.202,3.115 8.930,0.736 16.719 C -0.043 19.270,-0.341 414.177,0.433 418.594 C 1.867 426.777,7.383 433.114,15.469 435.867 L 17.969 436.719 199.688 436.719 C 374.072 436.719,381.487 436.696,383.398 436.153 C 390.862 434.034,396.338 428.792,398.802 421.406 L 399.531 419.219 399.531 218.750 L 399.531 18.281 398.624 15.514 C 396.529 9.122,391.499 4.011,384.948 1.619 L 382.656 0.781 200.625 0.720 C 23.680 0.660,18.532 0.674,16.366 1.243 M212.164 23.266 C 239.289 29.018,259.280 50.132,262.952 76.906 L 263.149 78.342 267.121 78.547 C 297.783 80.123,322.441 102.402,326.666 132.344 C 327.036 134.970,327.113 135.162,327.828 135.244 C 356.300 138.516,379.569 163.746,381.431 193.364 L 381.652 196.884 372.310 196.802 L 362.969 196.719 362.775 193.594 C 361.139 167.239,335.838 148.819,308.516 154.092 C 288.848 157.887,275.031 173.531,273.800 193.398 L 273.594 196.719 262.220 196.947 C 255.964 197.072,250.815 197.213,250.778 197.259 C 250.740 197.306,250.780 233.801,250.867 278.359 L 251.025 359.375 289.106 359.375 L 327.188 359.375 327.188 367.813 L 327.188 376.250 280.671 376.250 L 234.155 376.250 233.953 349.766 C 233.842 335.199,233.660 287.522,233.547 243.816 L 233.344 164.351 230.969 162.384 C 228.064 159.979,225.448 158.203,222.969 156.953 L 221.094 156.007 221.203 266.129 L 221.313 376.250 212.101 376.250 L 202.890 376.250 202.661 312.734 C 202.314 216.682,202.584 132.922,203.253 128.906 C 206.882 107.126,220.822 90.789,242.813 82.547 C 246.706 81.087,246.607 81.309,245.636 76.237 C 240.496 49.368,211.579 32.648,185.400 41.408 C 168.013 47.226,154.903 63.226,153.691 80.107 L 153.604 81.307 156.121 82.179 C 177.380 89.546,191.820 105.552,196.303 126.719 L 197.031 130.156 197.114 253.203 L 197.196 376.250 187.973 376.250 L 178.750 376.250 178.750 266.250 C 178.750 205.750,178.676 156.250,178.585 156.250 C 177.504 156.250,171.825 159.875,168.724 162.544 L 166.563 164.404 166.569 205.249 C 166.576 250.333,166.023 359.959,165.737 369.922 L 165.556 376.250 119.184 376.250 L 72.813 376.250 72.813 367.813 L 72.813 359.375 110.919 359.375 L 149.025 359.375 149.122 278.359 C 149.175 233.801,149.202 197.304,149.182 197.255 C 149.162 197.207,144.014 197.079,137.742 196.971 L 126.338 196.776 126.132 193.466 C 124.337 164.550,95.671 146.186,67.093 155.644 C 49.578 161.440,38.547 175.619,37.021 194.297 L 36.810 196.875 27.576 196.875 L 18.343 196.875 18.536 193.047 C 19.797 168.048,37.050 145.755,61.305 137.783 C 64.908 136.599,70.460 135.313,71.969 135.313 C 72.825 135.313,73.125 134.810,73.125 133.373 C 73.125 131.693,74.628 124.948,75.791 121.406 C 84.049 96.263,108.560 78.441,134.886 78.438 L 136.803 78.438 137.017 76.641 C 140.002 51.582,159.894 29.899,185.527 23.765 C 193.334 21.897,204.702 21.684,212.164 23.266 M129.375 97.072 C 109.753 99.533,95.886 112.286,92.304 131.165 C 91.648 134.622,91.251 134.179,95.880 135.157 C 115.768 139.356,132.317 153.637,139.072 172.429 C 139.460 173.508,139.815 174.351,139.861 174.304 C 139.908 174.257,140.391 173.094,140.935 171.719 C 147.185 155.927,159.947 143.672,175.781 138.256 C 179.085 137.126,178.937 137.396,178.324 133.635 C 175.338 115.309,162.430 101.656,144.437 97.793 C 141.474 97.157,132.227 96.714,129.375 97.072 M259.844 97.090 C 239.155 99.775,222.139 116.613,221.484 135.050 L 221.406 137.243 224.375 138.317 C 241.232 144.413,254.046 157.277,259.822 173.904 C 259.988 174.380,260.316 173.822,261.218 171.528 C 268.703 152.498,284.729 139.028,304.682 134.995 C 308.646 134.195,308.273 134.649,307.658 131.367 C 303.433 108.823,282.895 94.099,259.844 97.090 M165.745 387.771 C 167.874 388.819,169.328 390.312,170.161 392.306 C 170.922 394.129,170.826 394.268,168.516 394.680 C 167.355 394.886,166.160 395.123,165.859 395.205 C 165.508 395.301,165.313 395.180,165.313 394.866 C 165.313 394.071,163.173 391.939,161.980 391.545 C 155.772 389.497,151.077 395.337,152.788 402.980 C 153.893 407.921,158.822 410.039,163.626 407.639 L 165.469 406.719 165.563 405.078 L 165.658 403.438 162.659 403.438 L 159.660 403.438 159.752 401.172 L 159.844 398.906 165.391 398.821 L 170.938 398.736 170.938 405.774 L 170.938 412.813 168.408 412.813 C 166.211 412.813,165.859 412.737,165.728 412.235 C 165.584 411.686,165.473 411.696,163.492 412.427 C 151.556 416.828,141.928 402.326,149.496 391.344 C 152.603 386.836,160.374 385.127,165.745 387.771 M237.353 387.047 C 243.628 388.681,247.217 395.226,245.952 402.727 C 243.525 417.116,222.863 416.860,221.316 402.423 C 220.124 391.301,227.294 384.427,237.353 387.047 M89.063 387.512 C 95.132 389.657,95.715 398.898,89.978 402.015 C 88.374 402.886,88.042 402.943,83.829 403.070 L 79.375 403.204 79.375 408.008 L 79.375 412.813 76.719 412.813 L 74.063 412.813 74.063 400.052 C 74.063 393.034,74.168 387.182,74.297 387.047 C 74.671 386.657,87.814 387.071,89.063 387.512 M117.188 389.219 L 117.188 391.563 110.313 391.563 L 103.438 391.563 103.438 394.212 L 103.438 396.862 109.766 396.947 L 116.094 397.031 116.186 399.297 L 116.277 401.563 109.857 401.563 L 103.438 401.563 103.438 405.000 L 103.438 408.438 110.625 408.438 L 117.813 408.438 117.813 410.625 L 117.813 412.813 107.969 412.813 L 98.125 412.813 98.125 399.844 L 98.125 386.875 107.656 386.875 L 117.188 386.875 117.188 389.219 M132.188 395.300 L 137.344 403.723 137.427 395.299 L 137.510 386.875 140.005 386.875 L 142.500 386.875 142.500 399.856 L 142.500 412.837 139.787 412.747 L 137.074 412.656 131.974 404.399 L 126.875 396.141 126.875 404.477 L 126.875 412.813 124.375 412.813 L 121.875 412.813 121.875 400.052 C 121.875 393.034,121.969 387.198,122.083 387.083 C 122.198 386.969,123.358 386.875,124.661 386.876 L 127.031 386.877 132.188 395.300 M188.663 387.266 C 188.829 387.480,191.224 393.316,193.985 400.234 L 199.004 412.813 196.106 412.813 L 193.207 412.813 192.118 409.922 L 191.028 407.031 185.946 407.031 L 180.864 407.031 180.330 408.438 C 180.036 409.211,179.549 410.512,179.247 411.328 L 178.698 412.813 175.912 412.813 C 174.379 412.813,173.125 412.754,173.125 412.682 C 173.125 412.610,175.249 407.090,177.845 400.416 C 180.442 393.742,182.688 387.965,182.838 387.578 C 183.158 386.750,188.061 386.487,188.663 387.266 M204.693 391.867 C 206.323 394.612,207.727 396.860,207.813 396.862 C 207.898 396.865,209.255 394.653,210.827 391.949 L 213.685 387.031 216.686 386.942 C 218.337 386.893,219.688 386.948,219.688 387.065 C 219.688 387.182,217.578 390.612,215.000 394.688 L 210.313 402.098 210.313 407.455 L 210.313 412.813 207.656 412.813 L 205.000 412.813 205.000 407.376 L 205.000 401.939 200.313 394.552 C 197.734 390.489,195.625 387.100,195.625 387.020 C 195.625 386.940,196.999 386.875,198.678 386.875 L 201.730 386.875 204.693 391.867 M260.109 395.398 C 261.313 399.999,262.394 403.655,262.510 403.523 C 262.626 403.390,263.534 400.117,264.529 396.250 C 265.523 392.383,266.476 388.687,266.646 388.038 L 266.956 386.857 270.900 386.944 L 274.844 387.031 274.925 399.922 L 275.007 412.813 272.503 412.813 L 270.000 412.813 269.972 403.047 L 269.943 393.281 267.683 402.188 C 266.440 407.086,265.326 411.480,265.206 411.953 C 264.990 412.804,264.961 412.813,262.411 412.813 L 259.833 412.813 257.447 403.359 L 255.060 393.906 255.030 403.359 L 255.000 412.813 252.500 412.813 L 250.000 412.813 250.000 399.834 L 250.000 386.856 253.960 386.944 L 257.920 387.031 260.109 395.398 M298.000 399.840 C 300.819 406.885,303.125 412.691,303.125 412.742 C 303.125 412.794,301.830 412.796,300.248 412.746 L 297.371 412.656 296.269 409.766 L 295.167 406.875 290.115 406.875 L 285.063 406.875 284.016 409.843 L 282.969 412.811 280.099 412.812 L 277.230 412.813 278.240 410.234 C 278.795 408.816,281.062 402.976,283.276 397.255 L 287.302 386.853 290.089 386.942 L 292.876 387.031 298.000 399.840 M315.971 395.212 L 321.094 403.548 321.250 395.290 L 321.406 387.031 323.828 386.940 L 326.250 386.849 326.250 399.831 L 326.250 412.813 323.619 412.813 L 320.988 412.813 315.885 404.521 L 310.781 396.230 310.698 404.521 L 310.615 412.813 308.120 412.813 L 305.625 412.813 305.625 400.052 C 305.625 393.034,305.719 387.198,305.833 387.083 C 305.948 386.969,307.123 386.875,308.445 386.875 L 310.848 386.875 315.971 395.212 M230.781 391.690 C 225.645 393.966,225.066 404.438,229.906 407.508 C 236.127 411.453,242.103 405.328,240.334 396.820 C 239.418 392.414,234.775 389.920,230.781 391.690 M79.375 395.156 L 79.375 398.750 81.328 398.727 C 86.307 398.669,88.029 397.859,88.317 395.438 C 88.647 392.663,86.974 391.564,82.422 391.563 L 79.375 391.563 79.375 395.156 M184.199 397.714 C 183.350 400.060,182.609 402.096,182.552 402.239 C 182.495 402.383,183.936 402.500,185.755 402.500 C 187.574 402.500,189.063 402.375,189.063 402.221 C 189.063 401.943,185.993 393.702,185.828 393.537 C 185.781 393.489,185.047 395.369,184.199 397.714 M288.355 397.891 C 287.536 400.168,286.868 402.137,286.870 402.266 C 286.873 402.395,288.367 402.500,290.190 402.500 C 293.221 402.500,293.486 402.453,293.286 401.953 C 293.166 401.652,292.427 399.684,291.643 397.578 C 290.860 395.473,290.135 393.750,290.031 393.750 C 289.928 393.750,289.174 395.613,288.355 397.891 " stroke="none" fill="#1c1c53" fill-rule="evenodd"></path><path id="path2" d="M231.250 51.035 C 231.250 51.089,231.707 51.546,232.266 52.051 L 233.281 52.969 232.363 51.953 C 231.508 51.006,231.250 50.794,231.250 51.035 M132.113 78.659 C 132.502 78.733,133.064 78.730,133.363 78.652 C 133.662 78.574,133.344 78.513,132.656 78.516 C 131.969 78.520,131.724 78.584,132.113 78.659 M266.801 78.659 C 267.189 78.733,267.752 78.730,268.051 78.652 C 268.349 78.574,268.031 78.513,267.344 78.516 C 266.656 78.520,266.412 78.584,266.801 78.659 M218.892 97.578 L 217.656 98.906 218.984 97.671 C 220.220 96.522,220.456 96.250,220.220 96.250 C 220.169 96.250,219.571 96.848,218.892 97.578 M166.094 109.375 C 166.765 110.063,167.385 110.625,167.471 110.625 C 167.557 110.625,167.078 110.063,166.406 109.375 C 165.735 108.688,165.115 108.125,165.029 108.125 C 164.943 108.125,165.422 108.688,166.094 109.375 M196.980 135.313 C 196.980 136.602,197.035 137.129,197.103 136.484 C 197.170 135.840,197.170 134.785,197.103 134.141 C 197.035 133.496,196.980 134.023,196.980 135.313 M202.654 229.063 C 202.654 275.211,202.690 294.090,202.734 271.016 C 202.779 247.941,202.779 210.184,202.734 187.109 C 202.690 164.035,202.654 182.914,202.654 229.063 M125.156 150.938 C 125.828 151.625,126.447 152.188,126.533 152.188 C 126.619 152.188,126.140 151.625,125.469 150.938 C 124.797 150.250,124.178 149.688,124.092 149.688 C 124.006 149.688,124.485 150.250,125.156 150.938 M363.125 152.969 C 364.059 153.914,364.893 154.688,364.979 154.688 C 365.065 154.688,364.371 153.914,363.438 152.969 C 362.504 152.023,361.670 151.250,361.584 151.250 C 361.498 151.250,362.191 152.023,363.125 152.969 M178.673 163.672 C 178.717 167.926,178.792 173.234,178.839 175.469 C 178.887 177.703,178.957 174.223,178.994 167.734 C 179.032 161.246,178.957 155.937,178.828 155.937 C 178.699 155.937,178.629 159.418,178.673 163.672 M113.594 165.625 C 114.440 166.484,115.203 167.188,115.289 167.188 C 115.375 167.188,114.753 166.484,113.906 165.625 C 113.060 164.766,112.297 164.063,112.211 164.063 C 112.125 164.063,112.747 164.766,113.594 165.625 M166.398 185.625 C 166.398 197.227,166.437 201.973,166.484 196.172 C 166.532 190.371,166.532 180.879,166.484 175.078 C 166.437 169.277,166.398 174.023,166.398 185.625 M221.083 200.000 C 221.083 209.367,221.123 213.199,221.172 208.516 C 221.220 203.832,221.220 196.168,221.172 191.484 C 221.123 186.801,221.083 190.633,221.083 200.000 M362.891 195.469 C 362.895 196.156,362.959 196.401,363.034 196.012 C 363.108 195.623,363.105 195.061,363.027 194.762 C 362.949 194.463,362.888 194.781,362.891 195.469 M273.480 195.525 C 273.447 196.290,273.276 196.550,272.734 196.654 L 272.031 196.790 272.744 196.832 C 273.547 196.880,273.866 196.332,273.661 195.257 C 273.553 194.692,273.513 194.752,273.480 195.525 M143.525 197.105 C 144.347 197.170,145.612 197.169,146.338 197.103 C 147.063 197.038,146.391 196.985,144.844 196.986 C 143.297 196.987,142.703 197.040,143.525 197.105 M253.838 197.105 C 254.659 197.170,255.925 197.169,256.650 197.103 C 257.375 197.038,256.703 196.985,255.156 196.986 C 253.609 196.987,253.016 197.040,253.838 197.105 M149.201 217.500 C 149.201 222.742,149.244 224.887,149.296 222.266 C 149.349 219.645,149.349 215.355,149.296 212.734 C 149.244 210.113,149.201 212.258,149.201 217.500 M250.764 239.063 C 250.764 244.305,250.806 246.449,250.859 243.828 C 250.911 241.207,250.911 236.918,250.859 234.297 C 250.806 231.676,250.764 233.820,250.764 239.063 M166.381 266.719 C 166.381 270.156,166.427 271.605,166.483 269.938 C 166.539 268.272,166.539 265.459,166.483 263.688 C 166.427 261.918,166.382 263.281,166.381 266.719 M233.569 280.781 C 233.569 284.219,233.614 285.668,233.670 284.001 C 233.726 282.334,233.727 279.522,233.671 277.751 C 233.615 275.980,233.569 277.344,233.569 280.781 M166.069 315.313 C 166.069 318.836,166.115 320.277,166.171 318.516 C 166.226 316.754,166.226 313.871,166.171 312.109 C 166.115 310.348,166.069 311.789,166.069 315.313 M233.881 329.219 C 233.881 332.656,233.927 334.105,233.983 332.438 C 234.039 330.772,234.039 327.959,233.983 326.188 C 233.927 324.418,233.882 325.781,233.881 329.219 M165.757 363.750 C 165.757 367.273,165.802 368.715,165.858 366.953 C 165.914 365.191,165.914 362.309,165.858 360.547 C 165.802 358.785,165.757 360.227,165.757 363.750 M197.001 371.406 C 197.002 374.156,197.050 375.239,197.108 373.813 C 197.166 372.387,197.165 370.137,197.107 368.813 C 197.049 367.489,197.001 368.656,197.001 371.406 M234.170 373.906 C 234.171 375.281,234.226 375.805,234.292 375.070 C 234.358 374.335,234.357 373.210,234.290 372.570 C 234.223 371.930,234.168 372.531,234.170 373.906 M76.937 387.107 C 78.433 387.165,80.964 387.165,82.562 387.108 C 84.161 387.051,82.938 387.004,79.844 387.004 C 76.750 387.004,75.442 387.050,76.937 387.107 M102.910 387.109 C 105.628 387.161,109.987 387.161,112.598 387.109 C 115.208 387.056,112.984 387.014,107.656 387.014 C 102.328 387.014,100.192 387.057,102.910 387.109 M123.359 387.104 C 124.090 387.170,125.285 387.170,126.016 387.104 C 126.746 387.038,126.148 386.984,124.688 386.984 C 123.227 386.984,122.629 387.038,123.359 387.104 M138.672 387.104 C 139.402 387.170,140.598 387.170,141.328 387.104 C 142.059 387.038,141.461 386.984,140.000 386.984 C 138.539 386.984,137.941 387.038,138.672 387.104 M183.016 387.109 C 182.936 387.238,183.736 387.305,184.795 387.257 C 188.241 387.101,188.649 386.976,185.878 386.925 C 184.384 386.898,183.096 386.980,183.016 387.109 M195.624 387.109 C 195.624 387.238,196.643 387.305,197.890 387.258 C 201.782 387.111,202.160 386.977,198.828 386.925 C 197.066 386.898,195.625 386.980,195.624 387.109 M215.245 387.106 C 216.153 387.169,217.559 387.168,218.370 387.104 C 219.180 387.040,218.438 386.988,216.719 386.989 C 215.000 386.990,214.337 387.042,215.245 387.106 M251.250 387.082 C 254.660 387.311,258.055 387.325,257.922 387.109 C 257.841 386.980,255.991 386.900,253.810 386.931 C 251.628 386.962,250.477 387.030,251.250 387.082 M270.777 387.104 L 274.681 387.206 274.767 399.931 L 274.854 412.656 274.849 399.844 L 274.844 387.031 270.859 387.017 L 266.874 387.002 270.777 387.104 M287.969 387.073 C 290.178 387.304,293.056 387.325,292.921 387.109 C 292.841 386.980,291.483 386.898,289.903 386.925 C 288.324 386.953,287.453 387.019,287.969 387.073 M305.768 387.266 C 305.685 387.481,305.656 393.352,305.703 400.313 L 305.789 412.969 305.863 400.055 L 305.938 387.142 308.565 387.243 C 310.010 387.298,311.127 387.238,311.047 387.109 C 310.786 386.691,305.933 386.835,305.768 387.266 M321.434 387.142 C 321.211 387.504,321.164 403.768,321.386 403.991 C 321.483 404.087,321.563 400.352,321.563 395.690 L 321.563 387.214 323.984 387.107 L 326.406 387.001 324.003 386.938 C 322.681 386.903,321.525 386.995,321.434 387.142 M224.512 390.078 L 223.594 391.094 224.609 390.176 C 225.556 389.320,225.769 389.063,225.527 389.063 C 225.473 389.063,225.016 389.520,224.512 390.078 M93.823 395.000 C 93.823 395.602,93.887 395.848,93.965 395.547 C 94.044 395.246,94.044 394.754,93.965 394.453 C 93.887 394.152,93.823 394.398,93.823 395.000 M106.484 397.108 C 108.246 397.164,111.129 397.164,112.891 397.108 C 114.652 397.052,113.211 397.007,109.688 397.007 C 106.164 397.007,104.723 397.052,106.484 397.108 M162.562 398.982 C 164.058 399.040,166.589 399.040,168.187 398.983 C 169.786 398.926,168.563 398.879,165.469 398.879 C 162.375 398.879,161.067 398.925,162.562 398.982 M246.010 400.938 C 246.010 401.539,246.074 401.785,246.153 401.484 C 246.232 401.184,246.232 400.691,246.153 400.391 C 246.074 400.090,246.010 400.336,246.010 400.938 M117.605 410.625 C 117.605 411.914,117.660 412.441,117.728 411.797 C 117.795 411.152,117.795 410.098,117.728 409.453 C 117.660 408.809,117.605 409.336,117.605 410.625 " stroke="none" fill="#777138" fill-rule="evenodd"></path><path id="path3" d="M198.051 38.971 C 198.439 39.046,199.002 39.043,199.301 38.965 C 199.599 38.886,199.281 38.825,198.594 38.829 C 197.906 38.832,197.662 38.896,198.051 38.971 M200.547 38.971 C 200.934 39.045,201.566 39.045,201.953 38.971 C 202.340 38.896,202.023 38.835,201.250 38.835 C 200.477 38.835,200.160 38.896,200.547 38.971 M244.844 40.938 C 245.690 41.797,246.453 42.500,246.539 42.500 C 246.625 42.500,246.003 41.797,245.156 40.938 C 244.310 40.078,243.547 39.375,243.461 39.375 C 243.375 39.375,243.997 40.078,244.844 40.938 M133.359 96.791 C 134.090 96.857,135.285 96.857,136.016 96.791 C 136.746 96.726,136.148 96.672,134.688 96.672 C 133.227 96.672,132.629 96.726,133.359 96.791 M263.672 96.791 C 264.402 96.857,265.598 96.857,266.328 96.791 C 267.059 96.726,266.461 96.672,265.000 96.672 C 263.539 96.672,262.941 96.726,263.672 96.791 M103.438 108.906 C 102.678 109.680,102.128 110.313,102.214 110.313 C 102.300 110.313,102.991 109.680,103.750 108.906 C 104.509 108.133,105.060 107.500,104.974 107.500 C 104.888 107.500,104.197 108.133,103.438 108.906 M202.918 135.625 C 202.918 136.914,202.973 137.441,203.040 136.797 C 203.108 136.152,203.108 135.098,203.040 134.453 C 202.973 133.809,202.918 134.336,202.918 135.625 M196.978 140.469 C 196.979 141.672,197.035 142.126,197.103 141.477 C 197.171 140.829,197.170 139.845,197.101 139.290 C 197.032 138.735,196.976 139.266,196.978 140.469 M245.781 151.875 C 246.453 152.563,247.072 153.125,247.158 153.125 C 247.244 153.125,246.765 152.563,246.094 151.875 C 245.422 151.188,244.803 150.625,244.717 150.625 C 244.631 150.625,245.110 151.188,245.781 151.875 M36.563 152.969 C 35.803 153.742,35.253 154.375,35.339 154.375 C 35.425 154.375,36.116 153.742,36.875 152.969 C 37.634 152.195,38.185 151.563,38.099 151.563 C 38.013 151.563,37.322 152.195,36.563 152.969 M49.207 166.328 L 47.656 167.969 49.297 166.418 C 50.199 165.565,50.938 164.827,50.938 164.777 C 50.938 164.544,50.648 164.804,49.207 166.328 M233.586 187.031 C 233.586 199.406,233.624 204.423,233.672 198.180 C 233.719 191.937,233.719 181.812,233.672 175.680 C 233.624 169.548,233.586 174.656,233.586 187.031 M178.895 202.344 C 178.895 211.109,178.935 214.740,178.984 210.412 C 179.033 206.085,179.033 198.913,178.984 194.475 C 178.935 190.037,178.895 193.578,178.895 202.344 M381.297 195.386 L 381.250 196.553 372.109 196.641 L 362.969 196.729 372.119 196.802 C 382.085 196.882,381.752 196.942,381.476 195.105 C 381.364 194.357,381.336 194.400,381.297 195.386 M126.323 195.625 C 126.323 196.227,126.387 196.473,126.465 196.172 C 126.544 195.871,126.544 195.379,126.465 195.078 C 126.387 194.777,126.323 195.023,126.323 195.625 M23.066 196.796 C 25.698 196.849,29.917 196.849,32.441 196.796 C 34.966 196.744,32.813 196.701,27.656 196.701 C 22.500 196.701,20.434 196.744,23.066 196.796 M130.088 196.793 C 130.909 196.857,132.175 196.856,132.900 196.791 C 133.625 196.725,132.953 196.672,131.406 196.673 C 129.859 196.674,129.266 196.728,130.088 196.793 M267.109 196.791 C 267.840 196.857,269.035 196.857,269.766 196.791 C 270.496 196.726,269.898 196.672,268.438 196.672 C 266.977 196.672,266.379 196.726,267.109 196.791 M166.397 239.219 C 166.397 249.531,166.436 253.705,166.484 248.493 C 166.532 243.282,166.532 234.844,166.484 229.743 C 166.436 224.642,166.397 228.906,166.397 239.219 M221.091 300.313 C 221.091 342.164,221.128 359.285,221.172 338.359 C 221.216 317.434,221.216 283.191,221.172 262.266 C 221.128 241.340,221.091 258.461,221.091 300.313 M149.201 240.000 C 149.201 245.070,149.244 247.145,149.296 244.609 C 149.349 242.074,149.349 237.926,149.296 235.391 C 149.244 232.855,149.201 234.930,149.201 240.000 M233.568 266.094 C 233.568 269.359,233.614 270.653,233.671 268.968 C 233.727 267.283,233.727 264.612,233.670 263.031 C 233.614 261.450,233.567 262.828,233.568 266.094 M166.068 300.469 C 166.068 303.734,166.114 305.028,166.171 303.343 C 166.227 301.658,166.227 298.987,166.170 297.406 C 166.114 295.825,166.067 297.203,166.068 300.469 M233.880 314.531 C 233.881 317.797,233.927 319.090,233.983 317.406 C 234.039 315.721,234.039 313.049,233.983 311.468 C 233.926 309.887,233.880 311.266,233.880 314.531 M197.019 345.781 C 197.019 353.688,197.060 356.877,197.109 352.869 C 197.159 348.861,197.159 342.393,197.109 338.494 C 197.059 334.596,197.019 337.875,197.019 345.781 M165.755 348.906 C 165.756 352.172,165.802 353.465,165.858 351.781 C 165.914 350.096,165.914 347.424,165.858 345.843 C 165.801 344.262,165.755 345.641,165.755 348.906 M234.193 362.969 C 234.193 366.234,234.239 367.528,234.296 365.843 C 234.352 364.158,234.352 361.487,234.295 359.906 C 234.239 358.325,234.192 359.703,234.193 362.969 M327.012 367.969 C 327.012 372.609,327.055 374.551,327.108 372.284 C 327.162 370.017,327.162 366.220,327.109 363.847 C 327.056 361.473,327.012 363.328,327.012 367.969 M202.942 370.469 C 202.942 373.563,202.989 374.786,203.046 373.187 C 203.102 371.589,203.102 369.058,203.045 367.562 C 202.988 366.067,202.941 367.375,202.942 370.469 M74.205 399.844 C 74.205 406.891,74.246 409.818,74.296 406.349 C 74.347 402.880,74.347 397.114,74.297 393.537 C 74.246 389.959,74.205 392.797,74.205 399.844 M122.018 399.844 C 122.018 406.891,122.059 409.818,122.109 406.349 C 122.159 402.880,122.159 397.114,122.109 393.537 C 122.059 389.959,122.018 392.797,122.018 399.844 M137.432 395.625 C 137.383 400.266,137.449 404.063,137.578 404.063 C 137.707 404.063,137.813 400.266,137.813 395.625 C 137.813 390.984,137.747 387.188,137.666 387.188 C 137.586 387.188,137.480 390.984,137.432 395.625 M142.330 400.000 C 142.330 407.133,142.371 410.051,142.422 406.484 C 142.472 402.918,142.472 397.082,142.422 393.516 C 142.371 389.949,142.330 392.867,142.330 400.000 M80.547 391.479 C 81.277 391.545,82.473 391.545,83.203 391.479 C 83.934 391.413,83.336 391.359,81.875 391.359 C 80.414 391.359,79.816 391.413,80.547 391.479 M103.258 391.667 C 103.170 391.896,103.146 393.267,103.204 394.714 L 103.310 397.344 103.374 394.459 L 103.438 391.575 110.234 391.484 L 117.031 391.393 110.225 391.322 C 104.789 391.264,103.386 391.334,103.258 391.667 M254.688 402.656 C 254.688 408.128,254.754 412.538,254.836 412.456 C 255.046 412.246,255.071 393.091,254.861 392.882 C 254.765 392.786,254.688 397.185,254.688 402.656 M115.997 399.134 L 115.938 401.237 109.609 401.322 L 103.281 401.406 103.265 404.922 L 103.249 408.439 103.354 405.001 L 103.458 401.563 109.708 401.563 C 116.778 401.563,116.348 401.742,116.170 398.871 L 116.056 397.031 115.997 399.134 M146.954 399.844 C 146.957 400.531,147.021 400.776,147.096 400.387 C 147.171 399.998,147.168 399.436,147.090 399.137 C 147.011 398.838,146.950 399.156,146.954 399.844 M240.704 399.844 C 240.707 400.531,240.771 400.776,240.846 400.387 C 240.921 399.998,240.918 399.436,240.840 399.137 C 240.761 398.838,240.700 399.156,240.704 399.844 M159.822 401.250 L 159.844 403.281 162.718 403.371 L 165.593 403.461 165.714 405.013 L 165.836 406.566 165.808 404.924 L 165.781 403.281 162.905 403.192 L 160.028 403.102 159.915 401.160 L 159.801 399.219 159.822 401.250 M205.129 407.344 C 205.129 410.438,205.176 411.661,205.233 410.062 C 205.290 408.464,205.290 405.933,205.232 404.437 C 205.175 402.942,205.129 404.250,205.129 407.344 M84.453 403.028 C 84.754 403.107,85.246 403.107,85.547 403.028 C 85.848 402.949,85.602 402.885,85.000 402.885 C 84.398 402.885,84.152 402.949,84.453 403.028 " stroke="none" fill="#948c2c" fill-rule="evenodd"></path><path id="path4" d="M178.869 182.969 C 178.870 185.031,178.920 185.834,178.982 184.753 C 179.043 183.672,179.042 181.985,178.981 181.003 C 178.919 180.022,178.869 180.906,178.869 182.969 M166.384 213.594 C 166.384 217.547,166.429 219.121,166.484 217.092 C 166.538 215.063,166.538 211.828,166.483 209.904 C 166.428 207.980,166.384 209.641,166.384 213.594 M221.058 220.625 C 221.058 222.773,221.108 223.652,221.169 222.578 C 221.230 221.504,221.230 219.746,221.169 218.672 C 221.108 217.598,221.058 218.477,221.058 220.625 M149.165 228.906 C 149.166 230.109,149.223 230.563,149.291 229.915 C 149.358 229.267,149.357 228.282,149.288 227.727 C 149.219 227.173,149.164 227.703,149.165 228.906 M250.780 303.984 L 250.781 359.531 288.906 359.533 L 327.031 359.535 288.985 359.454 L 250.939 359.373 250.859 303.905 L 250.779 248.437 250.780 303.984 M166.339 259.219 C 166.342 260.078,166.402 260.393,166.474 259.918 C 166.546 259.443,166.544 258.739,166.470 258.355 C 166.396 257.971,166.337 258.359,166.339 259.219 M233.527 273.281 C 233.529 274.141,233.590 274.455,233.662 273.980 C 233.734 273.505,233.732 272.802,233.657 272.418 C 233.583 272.033,233.525 272.422,233.527 273.281 M166.027 307.656 C 166.029 308.516,166.090 308.830,166.162 308.355 C 166.234 307.880,166.232 307.177,166.157 306.793 C 166.083 306.408,166.025 306.797,166.027 307.656 M233.839 321.719 C 233.842 322.578,233.902 322.893,233.974 322.418 C 234.046 321.943,234.044 321.239,233.970 320.855 C 233.896 320.471,233.837 320.859,233.839 321.719 M165.714 356.094 C 165.717 356.953,165.777 357.268,165.849 356.793 C 165.921 356.318,165.919 355.614,165.845 355.230 C 165.771 354.846,165.712 355.234,165.714 356.094 M91.797 359.609 C 102.324 359.655,119.551 359.655,130.078 359.609 C 140.605 359.564,131.992 359.526,110.938 359.526 C 89.883 359.526,81.270 359.564,91.797 359.609 M196.992 363.281 C 196.993 365.172,197.044 365.905,197.106 364.910 C 197.168 363.916,197.168 362.369,197.105 361.473 C 197.042 360.577,196.991 361.391,196.992 363.281 M234.152 370.156 C 234.154 371.016,234.215 371.330,234.287 370.855 C 234.359 370.380,234.357 369.677,234.282 369.293 C 234.208 368.908,234.150 369.297,234.152 370.156 " stroke="none" fill="#8c8c2c" fill-rule="evenodd"></path></g></svg>