<svg id="svg" version="1.1" xmlns="http://www.w3.org/2000/svg" xmlns:xlink="http://www.w3.org/1999/xlink" width="400" height="400" viewBox="0, 0, 400,400"><g id="svgg"><path id="path0" d="M278.400 180.825 C 275.210 181.028,272.240 181.357,271.800 181.558 C 271.360 181.758,268.120 182.231,264.600 182.608 C 261.080 182.985,258.110 183.425,258.000 183.586 C 257.890 183.747,255.640 184.200,253.000 184.593 C 250.360 184.986,248.110 185.428,248.000 185.574 C 247.890 185.720,246.000 186.171,243.800 186.576 C 241.600 186.981,239.710 187.432,239.600 187.578 C 239.490 187.724,237.870 188.166,236.000 188.560 C 234.130 188.954,232.415 189.428,232.189 189.613 C 231.963 189.798,230.433 190.252,228.789 190.622 C 227.145 190.991,225.620 191.434,225.400 191.605 C 225.180 191.776,223.650 192.315,222.000 192.803 C 220.350 193.291,218.910 193.813,218.800 193.964 C 218.690 194.115,217.475 194.573,216.100 194.983 C 214.725 195.392,213.600 195.850,213.600 196.000 C 213.600 196.150,212.520 196.600,211.200 197.000 C 209.880 197.400,208.800 197.839,208.800 197.976 C 208.800 198.113,207.980 198.467,206.978 198.763 C 205.976 199.059,204.937 199.520,204.669 199.788 C 204.401 200.056,203.241 200.588,202.091 200.970 C 200.941 201.352,200.000 201.794,200.000 201.953 C 200.000 202.112,199.100 202.566,198.000 202.961 C 196.900 203.357,196.000 203.813,196.000 203.976 C 196.000 204.139,195.256 204.517,194.347 204.817 C 193.438 205.117,192.475 205.582,192.207 205.850 C 191.939 206.118,191.077 206.666,190.291 207.069 C 186.410 209.055,184.966 209.826,184.600 210.108 C 183.460 210.986,179.123 213.600,178.806 213.600 C 178.605 213.600,178.296 213.829,178.120 214.108 C 177.944 214.388,177.350 214.841,176.800 215.115 C 176.250 215.389,175.080 216.157,174.200 216.821 C 173.320 217.484,171.925 218.473,171.100 219.019 C 170.275 219.564,169.600 220.188,169.600 220.405 C 169.600 220.622,169.375 220.803,169.100 220.806 C 168.825 220.810,167.970 221.361,167.200 222.032 C 166.430 222.702,165.130 223.824,164.312 224.525 C 161.780 226.695,154.000 234.270,154.000 234.566 C 154.000 234.720,153.235 235.604,152.300 236.529 C 151.365 237.455,150.288 238.659,149.906 239.206 C 148.670 240.977,145.260 245.383,144.622 246.034 C 144.280 246.382,144.000 246.806,144.000 246.976 C 144.000 247.146,143.460 247.967,142.800 248.800 C 142.140 249.633,141.600 250.492,141.600 250.709 C 141.600 250.925,141.327 251.329,140.993 251.606 C 140.659 251.883,140.083 252.760,139.713 253.555 C 139.344 254.350,138.915 255.090,138.759 255.200 C 138.413 255.445,133.612 264.863,132.846 266.800 C 131.068 271.295,130.221 273.746,129.457 276.600 C 128.985 278.360,128.478 279.987,128.329 280.215 C 127.935 280.819,126.800 288.786,126.800 290.951 C 126.800 291.968,126.620 292.800,126.400 292.800 C 125.868 292.800,125.868 301.071,126.400 301.400 C 126.620 301.536,126.800 302.379,126.800 303.274 C 126.800 305.375,128.011 312.539,128.411 312.800 C 128.579 312.910,128.934 313.810,129.198 314.800 C 129.922 317.511,132.506 322.679,134.298 325.000 C 134.467 325.220,134.951 325.940,135.372 326.600 C 136.207 327.908,143.122 334.855,145.021 336.293 C 147.988 338.540,150.800 340.418,150.800 340.152 C 150.800 339.992,151.205 340.230,151.700 340.682 C 152.195 341.134,153.275 341.742,154.100 342.033 C 154.925 342.323,155.600 342.692,155.600 342.853 C 155.600 343.014,156.005 343.273,156.500 343.428 C 156.995 343.583,158.300 344.117,159.400 344.615 C 162.748 346.130,167.220 347.537,170.800 348.204 C 172.670 348.552,174.740 348.960,175.400 349.110 C 176.992 349.474,190.164 349.478,192.200 349.115 C 198.959 347.911,202.456 347.180,203.076 346.840 C 203.474 346.621,204.745 346.149,205.900 345.789 C 207.055 345.430,208.000 344.999,208.000 344.832 C 208.000 344.665,208.731 344.287,209.625 343.992 C 210.518 343.697,211.424 343.128,211.639 342.728 C 211.853 342.328,212.254 342.000,212.531 342.000 C 212.807 342.000,213.705 341.235,214.527 340.300 C 215.349 339.365,216.263 338.330,216.558 338.000 C 216.853 337.670,217.335 336.680,217.629 335.800 C 217.923 334.920,218.307 334.029,218.482 333.820 C 218.918 333.299,218.884 329.748,218.434 328.895 C 218.232 328.513,217.781 327.570,217.431 326.800 C 216.047 323.752,206.400 318.780,206.400 321.114 C 206.400 321.287,207.120 322.023,208.000 322.751 C 208.880 323.479,209.600 324.251,209.600 324.466 C 209.600 324.681,209.870 325.127,210.200 325.457 C 212.313 327.570,209.168 336.000,206.266 336.000 C 206.045 336.000,205.579 336.242,205.231 336.539 C 204.458 337.198,200.352 338.338,198.272 338.470 C 197.431 338.524,196.656 338.710,196.548 338.884 C 196.261 339.348,192.000 339.270,192.000 338.800 C 192.000 338.580,191.415 338.397,190.700 338.393 C 188.531 338.381,184.065 337.289,181.794 336.214 C 180.614 335.656,179.458 335.200,179.225 335.200 C 178.991 335.200,178.800 335.049,178.800 334.864 C 178.800 334.680,178.366 334.331,177.836 334.089 C 175.861 333.189,170.800 328.854,170.800 328.062 C 170.800 327.833,170.482 327.410,170.094 327.123 C 169.253 326.500,166.688 321.340,165.957 318.800 C 165.672 317.810,165.311 316.909,165.154 316.798 C 163.700 315.765,163.750 297.998,165.212 296.195 C 165.393 295.972,165.763 294.907,166.035 293.828 C 166.749 290.993,170.125 284.721,172.048 282.656 C 172.462 282.212,172.800 281.699,172.800 281.516 C 172.800 281.127,180.513 273.426,182.232 272.098 C 183.293 271.279,186.239 269.128,188.793 267.308 C 189.339 266.918,190.239 266.370,190.793 266.089 C 191.347 265.807,192.700 265.042,193.800 264.388 C 195.662 263.281,199.008 261.613,203.800 259.404 C 204.900 258.897,206.565 258.255,207.500 257.978 C 208.435 257.700,209.200 257.352,209.200 257.204 C 209.200 257.055,210.550 256.598,212.200 256.187 C 213.850 255.776,215.200 255.325,215.200 255.185 C 215.200 255.045,216.685 254.597,218.500 254.188 C 220.315 253.780,221.890 253.325,222.000 253.177 C 222.110 253.030,224.090 252.598,226.400 252.217 C 228.710 251.837,230.960 251.365,231.400 251.170 C 232.984 250.466,253.815 248.626,260.200 248.627 C 266.422 248.627,286.319 250.542,286.800 251.186 C 286.910 251.334,288.798 251.771,290.996 252.158 C 293.194 252.545,295.174 253.006,295.396 253.182 C 295.618 253.359,297.195 253.828,298.900 254.225 C 300.605 254.622,302.000 255.072,302.000 255.226 C 302.000 255.379,302.845 255.718,303.877 255.978 C 305.865 256.478,307.655 257.222,312.204 259.435 C 313.745 260.186,315.230 260.800,315.504 260.800 C 315.777 260.800,316.000 260.948,316.000 261.129 C 316.000 261.309,316.900 261.864,318.000 262.361 C 319.100 262.858,320.000 263.397,320.000 263.558 C 320.000 263.719,320.630 264.098,321.400 264.400 C 322.170 264.702,322.800 265.091,322.800 265.264 C 322.800 265.438,323.385 265.878,324.100 266.244 C 324.815 266.609,325.544 267.154,325.720 267.454 C 325.896 267.754,326.237 268.000,326.479 268.000 C 328.203 268.000,339.394 279.127,340.258 281.700 C 340.388 282.085,340.644 282.400,340.828 282.400 C 341.012 282.400,341.461 283.030,341.827 283.800 C 342.192 284.570,342.615 285.200,342.767 285.200 C 342.918 285.200,343.366 286.100,343.761 287.200 C 344.157 288.300,344.600 289.200,344.745 289.200 C 344.891 289.200,345.350 290.415,345.766 291.900 C 346.182 293.385,346.658 294.780,346.824 295.000 C 347.918 296.448,348.651 306.503,348.032 311.552 C 347.778 313.616,347.650 315.383,347.747 315.480 C 348.038 315.772,349.595 314.645,349.802 313.992 C 349.909 313.657,350.492 312.810,351.098 312.109 C 353.315 309.547,360.000 300.555,360.000 300.135 C 360.000 300.010,360.630 299.049,361.400 298.000 C 362.170 296.951,362.800 295.907,362.800 295.680 C 362.800 295.453,362.946 295.207,363.124 295.133 C 363.302 295.060,364.660 292.930,366.142 290.400 C 367.623 287.870,369.012 285.530,369.228 285.200 C 369.444 284.870,370.077 283.658,370.636 282.508 C 371.195 281.357,371.788 280.331,371.955 280.228 C 372.122 280.125,372.499 279.311,372.793 278.420 C 373.087 277.529,373.443 276.800,373.584 276.800 C 373.843 276.800,374.871 274.291,375.056 273.207 C 375.111 272.881,375.346 272.551,375.578 272.474 C 375.810 272.397,376.000 272.160,376.000 271.948 C 376.000 271.736,376.630 270.217,377.400 268.573 C 378.170 266.928,378.800 265.356,378.800 265.080 C 378.800 264.804,379.047 264.223,379.350 263.789 C 379.652 263.355,380.233 261.920,380.639 260.600 C 381.046 259.280,381.484 258.110,381.614 258.000 C 381.744 257.890,382.170 256.720,382.562 255.400 C 382.954 254.080,383.506 252.460,383.790 251.800 C 384.073 251.140,384.530 249.610,384.805 248.400 C 385.080 247.190,385.442 246.020,385.609 245.800 C 385.776 245.580,386.212 243.960,386.577 242.200 C 386.943 240.440,387.409 238.693,387.613 238.319 C 390.807 232.448,389.478 214.222,385.636 211.200 C 385.496 211.090,385.067 210.506,384.682 209.901 C 383.644 208.269,378.285 202.800,377.725 202.800 C 377.458 202.800,377.096 202.544,376.920 202.231 C 376.526 201.529,371.972 198.402,371.343 198.401 C 371.091 198.400,370.799 198.174,370.693 197.899 C 370.587 197.623,369.803 197.147,368.950 196.842 C 368.098 196.537,367.310 196.170,367.200 196.026 C 366.925 195.665,361.030 192.800,360.564 192.800 C 360.357 192.800,359.561 192.474,358.794 192.075 C 358.027 191.676,356.230 191.010,354.800 190.594 C 353.370 190.179,352.110 189.719,352.000 189.573 C 351.890 189.426,350.405 188.980,348.700 188.580 C 346.995 188.181,345.600 187.737,345.600 187.595 C 345.600 187.453,343.845 186.998,341.700 186.583 C 339.555 186.169,337.710 185.717,337.600 185.579 C 337.377 185.300,333.766 184.597,330.400 184.177 C 329.190 184.027,328.110 183.765,328.000 183.596 C 327.822 183.322,319.964 182.212,311.000 181.195 C 306.172 180.647,284.983 180.406,278.400 180.825 " stroke="none" fill="#0494dc" fill-rule="evenodd"></path><path id="path1" d="M291.400 65.832 C 290.300 65.912,286.356 66.179,282.635 66.426 C 278.915 66.672,275.585 67.021,275.235 67.201 C 274.886 67.382,271.735 67.832,268.234 68.202 C 264.733 68.572,261.583 69.027,261.234 69.213 C 260.885 69.399,258.440 69.855,255.800 70.226 C 253.160 70.596,250.820 71.007,250.600 71.138 C 250.380 71.270,249.930 71.421,249.600 71.474 C 246.119 72.039,235.227 74.655,232.400 75.605 C 231.190 76.012,229.210 76.563,228.000 76.830 C 226.790 77.098,225.710 77.436,225.600 77.583 C 225.490 77.729,224.140 78.179,222.600 78.582 C 221.060 78.984,219.620 79.447,219.400 79.609 C 219.180 79.771,217.920 80.212,216.600 80.590 C 215.280 80.967,214.020 81.420,213.800 81.597 C 213.580 81.774,212.432 82.204,211.249 82.553 C 210.065 82.902,208.895 83.347,208.649 83.542 C 208.402 83.736,207.480 84.122,206.600 84.398 C 205.149 84.854,202.638 85.900,199.400 87.397 C 194.670 89.584,192.075 90.729,191.300 90.972 C 190.805 91.127,190.400 91.386,190.400 91.547 C 190.400 91.708,189.725 92.082,188.900 92.380 C 187.658 92.827,180.994 96.275,178.800 97.605 C 178.470 97.805,176.760 98.799,175.000 99.813 C 173.240 100.828,170.990 102.127,170.000 102.701 C 169.010 103.274,168.056 103.981,167.880 104.272 C 167.704 104.562,167.377 104.800,167.152 104.800 C 166.928 104.800,165.959 105.340,165.000 106.000 C 164.041 106.660,163.058 107.200,162.815 107.200 C 162.573 107.200,162.271 107.470,162.145 107.800 C 162.018 108.130,161.709 108.402,161.457 108.404 C 161.206 108.406,160.242 108.991,159.316 109.704 C 158.390 110.417,157.040 111.412,156.316 111.916 C 153.391 113.953,148.941 117.183,148.000 117.952 C 145.369 120.102,141.608 123.100,140.412 124.000 C 139.681 124.550,138.482 125.540,137.746 126.200 C 137.010 126.860,135.551 128.152,134.504 129.072 C 128.904 133.989,126.988 135.721,122.671 139.767 C 113.734 148.146,107.142 154.901,102.699 160.237 C 101.433 161.756,100.038 163.366,99.599 163.814 C 99.159 164.262,98.800 164.781,98.800 164.968 C 98.800 165.155,98.395 165.713,97.900 166.207 C 96.641 167.463,94.400 170.594,94.400 171.096 C 94.400 171.326,94.130 171.618,93.799 171.745 C 93.469 171.872,92.896 172.611,92.525 173.388 C 92.155 174.164,91.734 174.800,91.590 174.800 C 91.446 174.800,90.985 175.518,90.564 176.395 C 90.144 177.273,89.678 177.993,89.528 177.995 C 89.378 177.998,88.488 179.395,87.549 181.100 C 86.611 182.805,85.636 184.410,85.384 184.666 C 85.132 184.922,84.682 185.732,84.385 186.466 C 84.088 187.200,83.739 187.890,83.610 188.000 C 83.272 188.287,78.400 198.180,78.400 198.579 C 78.400 198.762,78.046 199.652,77.614 200.556 C 75.602 204.765,73.593 210.236,72.384 214.800 C 71.947 216.450,71.421 218.098,71.214 218.463 C 71.008 218.828,70.523 220.808,70.136 222.863 C 69.749 224.918,69.311 226.690,69.162 226.800 C 69.013 226.910,68.595 229.250,68.233 232.000 C 67.871 234.750,67.408 237.540,67.204 238.200 C 65.913 242.376,65.927 272.279,67.220 272.733 C 67.429 272.807,67.600 273.324,67.600 273.884 C 67.600 275.350,68.858 282.563,69.155 282.800 C 69.293 282.910,69.742 284.350,70.152 286.000 C 70.562 287.650,71.032 289.180,71.196 289.400 C 71.360 289.620,71.802 290.790,72.178 292.000 C 72.554 293.210,73.106 294.740,73.403 295.400 C 73.701 296.060,74.592 298.040,75.383 299.800 C 76.174 301.560,77.001 303.270,77.220 303.600 C 77.440 303.930,77.981 304.920,78.422 305.800 C 79.287 307.525,79.613 308.082,81.300 310.720 C 81.905 311.666,82.400 312.525,82.400 312.630 C 82.400 312.734,83.131 313.850,84.026 315.110 C 84.920 316.369,86.017 317.985,86.465 318.700 C 86.913 319.415,87.441 320.000,87.640 320.000 C 87.838 320.000,88.003 320.225,88.006 320.500 C 88.010 320.775,88.544 321.603,89.194 322.340 C 89.844 323.077,90.876 324.329,91.488 325.123 C 92.099 325.916,93.455 327.436,94.500 328.501 C 95.545 329.567,96.400 330.543,96.400 330.670 C 96.400 330.908,100.891 335.333,104.019 338.177 C 104.972 339.044,107.653 341.247,109.976 343.072 C 112.299 344.898,114.515 346.663,114.900 346.996 C 115.285 347.328,115.694 347.600,115.810 347.600 C 116.025 347.600,119.418 349.798,121.200 351.091 C 121.750 351.491,122.740 352.083,123.400 352.408 C 124.060 352.733,124.690 353.100,124.800 353.224 C 125.248 353.729,135.866 358.800,136.475 358.800 C 136.837 358.800,137.193 358.953,137.267 359.139 C 137.423 359.536,141.268 360.907,145.800 362.180 C 147.560 362.674,149.280 363.202,149.622 363.352 C 149.964 363.502,151.854 363.969,153.822 364.388 C 155.790 364.807,158.176 365.345,159.123 365.582 C 160.071 365.820,163.311 366.290,166.323 366.627 C 169.336 366.964,172.700 367.359,173.800 367.505 C 176.496 367.863,189.306 367.870,191.800 367.515 C 192.900 367.358,195.960 366.953,198.600 366.614 C 201.240 366.275,204.120 365.746,205.000 365.439 C 205.880 365.132,207.500 364.672,208.600 364.418 C 212.147 363.598,218.618 360.759,221.895 358.584 C 222.723 358.035,223.745 357.364,224.166 357.093 C 225.964 355.936,230.381 351.934,232.023 349.973 C 234.271 347.289,234.830 346.335,236.642 342.100 C 237.858 339.255,237.998 329.559,236.833 328.813 C 236.650 328.696,236.378 328.034,236.228 327.343 C 235.969 326.149,234.122 322.891,232.972 321.600 C 231.703 320.176,230.876 319.349,229.969 318.599 C 228.584 317.453,224.998 315.200,224.559 315.200 C 224.355 315.200,223.561 314.865,222.794 314.456 C 217.170 311.454,202.551 312.591,198.276 316.361 C 195.264 319.018,194.800 319.961,194.800 323.429 C 194.800 325.518,196.032 327.066,198.007 327.461 L 199.325 327.725 198.994 326.363 C 197.808 321.474,200.644 318.808,207.036 318.802 C 212.938 318.797,218.049 322.093,219.438 326.800 C 219.795 328.010,220.247 329.313,220.443 329.695 C 220.905 330.593,220.899 332.514,220.432 333.681 C 220.230 334.187,219.762 335.590,219.393 336.800 C 218.791 338.772,215.751 343.084,214.628 343.557 C 214.423 343.644,213.862 344.139,213.382 344.657 C 212.901 345.176,212.338 345.600,212.130 345.600 C 211.921 345.600,211.398 345.929,210.966 346.331 C 210.535 346.733,209.421 347.398,208.491 347.808 C 207.561 348.218,206.800 348.699,206.800 348.877 C 206.800 349.055,206.552 349.200,206.249 349.200 C 205.946 349.200,204.371 349.726,202.749 350.369 C 201.127 351.012,198.720 351.751,197.400 352.012 C 196.080 352.272,194.730 352.581,194.400 352.697 C 187.856 354.997,170.068 352.813,160.400 348.522 C 156.547 346.812,152.944 344.996,152.471 344.526 C 152.181 344.237,151.736 344.000,151.482 344.000 C 150.957 344.000,145.091 340.128,142.412 338.012 C 141.428 337.235,140.267 336.330,139.832 336.000 C 138.627 335.086,130.400 326.870,130.400 326.581 C 130.400 326.441,129.770 325.591,129.000 324.692 C 128.230 323.792,127.600 322.875,127.600 322.654 C 127.600 322.433,127.252 321.880,126.827 321.426 C 125.884 320.418,121.769 312.237,121.377 310.589 C 121.221 309.935,120.776 308.680,120.388 307.800 C 119.999 306.920,119.458 304.760,119.184 303.000 C 118.910 301.240,118.487 299.547,118.243 299.239 C 117.618 298.447,117.634 279.269,118.260 277.961 C 118.513 277.432,119.022 275.202,119.391 273.004 C 119.760 270.806,120.198 268.826,120.365 268.604 C 120.532 268.382,120.992 266.968,121.389 265.462 C 121.785 263.956,122.445 262.029,122.855 261.181 C 123.265 260.333,123.601 259.405,123.601 259.119 C 123.602 258.834,123.951 258.030,124.376 257.333 C 124.800 256.636,125.368 255.331,125.637 254.433 C 125.906 253.535,126.245 252.800,126.390 252.800 C 126.534 252.800,127.063 251.810,127.565 250.600 C 128.066 249.390,128.620 248.400,128.795 248.400 C 128.970 248.400,129.217 247.995,129.343 247.500 C 129.537 246.738,131.638 243.146,132.683 241.788 C 132.857 241.561,133.346 240.751,133.770 239.988 C 134.193 239.225,134.650 238.510,134.785 238.400 C 134.920 238.290,135.816 237.030,136.776 235.600 C 138.599 232.885,139.902 231.151,141.135 229.800 C 141.536 229.360,142.569 228.100,143.430 227.000 C 144.291 225.900,145.927 224.010,147.065 222.800 C 148.204 221.590,149.536 220.089,150.026 219.464 C 151.820 217.171,160.170 209.521,166.249 204.600 C 167.064 203.940,168.160 202.995,168.684 202.500 C 169.208 202.005,169.745 201.600,169.877 201.600 C 170.009 201.600,170.886 200.970,171.826 200.200 C 172.766 199.430,173.720 198.800,173.947 198.800 C 174.174 198.800,174.504 198.574,174.680 198.297 C 174.947 197.876,179.215 194.828,181.537 193.400 C 181.894 193.180,182.942 192.505,183.865 191.900 C 184.789 191.295,185.715 190.800,185.923 190.800 C 186.132 190.800,186.528 190.528,186.804 190.195 C 187.080 189.863,188.047 189.229,188.953 188.786 C 189.859 188.344,191.500 187.453,192.600 186.808 C 194.960 185.423,203.593 181.158,205.600 180.385 C 206.370 180.088,207.090 179.738,207.200 179.607 C 207.310 179.476,208.435 179.024,209.700 178.602 C 210.965 178.180,212.000 177.713,212.000 177.565 C 212.000 177.416,212.845 177.082,213.877 176.822 C 214.910 176.562,216.536 175.994,217.491 175.559 C 218.445 175.124,220.211 174.570,221.413 174.329 C 222.616 174.087,223.600 173.763,223.600 173.607 C 223.600 173.452,225.130 173.004,227.000 172.612 C 228.870 172.219,230.400 171.774,230.400 171.622 C 230.400 171.471,232.155 171.031,234.300 170.646 C 236.445 170.260,238.560 169.785,239.000 169.589 C 240.201 169.056,250.972 167.257,258.000 166.416 C 261.410 166.009,265.100 165.555,266.200 165.409 C 275.696 164.144,303.353 164.102,313.800 165.337 C 314.680 165.441,318.820 165.822,323.000 166.182 C 327.180 166.543,330.913 166.931,331.297 167.045 C 332.300 167.343,333.487 167.550,340.200 168.602 C 348.248 169.862,354.970 171.237,355.133 171.657 C 355.207 171.846,355.541 172.000,355.876 172.000 C 356.820 172.000,362.175 173.324,362.400 173.613 C 362.510 173.755,363.490 174.091,364.577 174.360 C 365.665 174.630,367.285 175.181,368.177 175.584 C 369.070 175.988,370.565 176.545,371.500 176.822 C 372.435 177.100,373.200 177.478,373.200 177.663 C 373.200 177.848,373.455 178.000,373.766 178.000 C 374.448 178.000,379.591 180.692,382.667 182.660 C 385.718 184.612,389.626 188.574,390.992 191.100 C 392.610 194.092,393.199 193.879,393.203 190.300 C 393.207 185.022,392.320 171.007,391.957 170.620 C 391.761 170.411,391.600 169.663,391.600 168.957 C 391.600 166.860,390.397 157.866,390.001 157.000 C 389.800 156.560,389.440 154.850,389.202 153.200 C 388.809 150.484,388.297 148.019,387.788 146.400 C 387.685 146.070,387.263 144.360,386.851 142.600 C 386.439 140.840,385.904 138.950,385.662 138.400 C 385.420 137.850,384.931 136.230,384.575 134.800 C 384.219 133.370,383.793 132.020,383.626 131.800 C 383.460 131.580,383.092 130.500,382.809 129.400 C 382.526 128.300,381.980 126.680,381.596 125.800 C 381.212 124.920,380.307 122.670,379.586 120.800 C 378.864 118.930,377.864 116.500,377.363 115.400 C 376.862 114.300,376.331 112.905,376.183 112.300 C 376.034 111.695,375.771 111.200,375.597 111.200 C 375.423 111.200,374.957 110.300,374.561 109.200 C 374.166 108.100,373.722 107.200,373.575 107.200 C 373.429 107.200,372.984 106.350,372.587 105.312 C 372.191 104.273,371.716 103.238,371.533 103.012 C 371.350 102.785,370.551 101.340,369.756 99.800 C 367.984 96.364,365.505 92.247,365.100 92.067 C 364.935 91.993,364.800 91.766,364.800 91.562 C 364.800 89.810,356.634 80.835,351.800 77.274 C 348.419 74.783,340.236 70.705,337.200 69.997 C 335.990 69.715,334.910 69.353,334.800 69.194 C 334.577 68.870,327.470 67.600,325.884 67.600 C 325.324 67.600,324.807 67.442,324.733 67.250 C 324.403 66.384,298.779 65.293,291.400 65.832 " stroke="none" fill="#04448c" fill-rule="evenodd"></path><path id="path2" d="M182.600 0.254 C 171.879 1.297,168.567 1.693,168.216 1.970 C 167.987 2.151,165.641 2.608,163.002 2.984 C 160.364 3.360,158.114 3.806,158.002 3.975 C 157.891 4.144,156.045 4.595,153.900 4.978 C 151.755 5.361,150.000 5.797,150.000 5.947 C 150.000 6.097,148.470 6.555,146.600 6.965 C 144.730 7.375,143.200 7.837,143.200 7.992 C 143.200 8.146,142.165 8.501,140.900 8.780 C 139.635 9.059,137.880 9.598,137.000 9.976 C 136.120 10.355,134.590 10.908,133.600 11.204 C 132.610 11.501,131.600 11.893,131.356 12.074 C 131.113 12.256,129.943 12.752,128.756 13.177 C 125.555 14.323,121.428 16.067,121.200 16.369 C 121.090 16.514,120.211 16.888,119.247 17.198 C 118.283 17.509,117.293 17.964,117.047 18.210 C 116.801 18.456,115.745 18.984,114.700 19.383 C 113.655 19.782,112.800 20.229,112.800 20.375 C 112.800 20.522,111.900 20.966,110.800 21.361 C 109.700 21.757,108.800 22.202,108.800 22.351 C 108.800 22.499,107.992 22.976,107.004 23.410 C 106.016 23.845,105.206 24.308,105.204 24.439 C 105.202 24.571,104.480 25.003,103.600 25.400 C 102.720 25.797,102.000 26.255,102.000 26.417 C 102.000 26.580,101.280 27.001,100.400 27.353 C 99.520 27.705,98.800 28.154,98.800 28.350 C 98.800 28.546,98.485 28.810,98.100 28.937 C 97.056 29.281,92.922 31.945,90.089 34.100 C 88.715 35.145,87.473 36.000,87.329 36.000 C 87.185 36.000,86.782 36.276,86.434 36.613 C 86.085 36.950,84.270 38.387,82.400 39.805 C 79.178 42.249,77.948 43.262,74.200 46.552 C 73.320 47.325,72.150 48.337,71.600 48.801 C 69.465 50.604,59.760 60.334,57.601 62.837 C 56.350 64.287,54.930 65.907,54.445 66.437 C 53.959 66.966,53.233 67.760,52.830 68.200 C 52.427 68.640,51.472 69.834,50.707 70.854 C 49.943 71.873,48.931 73.122,48.459 73.629 C 47.986 74.136,47.600 74.671,47.600 74.817 C 47.600 74.963,47.195 75.546,46.700 76.111 C 46.205 76.676,45.350 77.801,44.800 78.610 C 44.250 79.419,43.495 80.413,43.121 80.819 C 42.748 81.225,42.140 82.143,41.769 82.859 C 41.399 83.575,40.850 84.408,40.548 84.709 C 40.247 85.010,40.000 85.390,40.000 85.553 C 40.000 85.716,39.679 86.198,39.287 86.625 C 38.895 87.051,38.263 88.061,37.883 88.868 C 37.504 89.675,37.050 90.395,36.876 90.468 C 36.702 90.541,36.053 91.500,35.433 92.600 C 32.749 97.368,32.245 98.271,31.576 99.518 C 31.186 100.243,30.698 101.053,30.490 101.318 C 30.282 101.583,29.793 102.655,29.402 103.700 C 29.011 104.745,28.536 105.600,28.346 105.600 C 28.156 105.600,28.000 105.791,28.000 106.024 C 28.000 106.409,26.266 110.237,23.763 115.379 C 23.233 116.467,22.800 117.682,22.800 118.079 C 22.800 118.475,22.644 118.800,22.453 118.800 C 22.262 118.800,21.802 119.880,21.432 121.200 C 21.062 122.520,20.588 123.600,20.379 123.600 C 20.171 123.600,20.000 123.864,20.000 124.186 C 20.000 124.884,18.966 128.114,18.203 129.800 C 17.904 130.460,17.448 131.900,17.190 133.000 C 16.932 134.100,16.496 135.540,16.221 136.200 C 15.946 136.860,15.483 138.480,15.193 139.800 C 14.903 141.120,14.533 142.380,14.371 142.600 C 14.209 142.820,13.773 144.620,13.403 146.600 C 13.033 148.580,12.565 150.560,12.364 151.000 C 12.163 151.440,11.650 154.167,11.225 157.060 C 10.800 159.954,10.274 163.014,10.057 163.860 C 7.981 171.942,8.074 211.642,10.189 220.400 C 10.482 221.610,10.834 223.680,10.973 225.000 C 11.112 226.320,11.485 228.570,11.802 230.000 C 12.119 231.430,12.743 234.366,13.188 236.524 C 13.634 238.683,14.151 240.753,14.338 241.124 C 14.525 241.496,14.996 243.150,15.384 244.800 C 15.771 246.450,16.219 247.980,16.378 248.200 C 16.538 248.420,16.996 249.860,17.398 251.400 C 17.799 252.940,18.245 254.290,18.388 254.400 C 18.532 254.510,18.973 255.815,19.369 257.300 C 19.765 258.785,20.209 260.000,20.356 260.000 C 20.503 260.000,20.943 261.080,21.335 262.400 C 21.727 263.720,22.174 264.800,22.329 264.800 C 22.483 264.800,22.945 265.970,23.355 267.400 C 23.764 268.830,24.245 270.000,24.423 270.000 C 24.601 270.000,24.873 270.405,25.028 270.900 C 25.183 271.395,25.915 273.097,26.655 274.682 C 27.395 276.266,28.000 277.751,28.000 277.982 C 28.000 278.212,28.168 278.400,28.373 278.400 C 28.578 278.400,28.873 278.805,29.028 279.300 C 29.184 279.795,30.591 282.493,32.155 285.296 C 33.720 288.098,35.307 290.963,35.681 291.661 C 36.056 292.359,36.506 293.036,36.681 293.165 C 36.857 293.294,37.350 294.030,37.778 294.800 C 38.205 295.570,38.790 296.438,39.078 296.729 C 39.365 297.019,39.600 297.469,39.600 297.729 C 39.601 297.988,40.051 298.723,40.600 299.362 C 41.150 300.001,41.600 300.642,41.600 300.787 C 41.600 300.931,41.929 301.403,42.332 301.835 C 42.735 302.267,43.408 303.156,43.829 303.810 C 44.832 305.370,45.220 305.880,46.300 307.056 C 46.795 307.595,47.200 308.137,47.200 308.261 C 47.200 308.499,49.996 312.185,50.946 313.200 C 51.255 313.530,52.535 315.060,53.792 316.600 C 57.445 321.079,68.199 332.400,68.800 332.400 C 68.934 332.400,70.223 333.525,71.664 334.900 C 76.087 339.120,77.074 340.000,77.382 340.000 C 77.545 340.000,78.171 340.495,78.772 341.100 C 79.373 341.705,80.300 342.518,80.832 342.907 C 81.749 343.576,84.900 346.002,85.831 346.754 C 86.069 346.946,86.969 347.566,87.831 348.132 C 88.694 348.697,89.850 349.525,90.400 349.971 C 90.950 350.417,91.625 350.786,91.900 350.791 C 92.175 350.796,92.400 350.975,92.400 351.190 C 92.400 351.404,92.985 351.879,93.700 352.246 C 94.415 352.612,95.090 353.035,95.200 353.186 C 95.310 353.337,96.027 353.807,96.793 354.230 C 97.559 354.654,98.432 355.230,98.733 355.511 C 99.033 355.792,99.847 356.294,100.540 356.625 C 101.233 356.957,102.520 357.665,103.400 358.200 C 108.066 361.033,115.199 364.800,115.899 364.800 C 116.175 364.800,116.400 364.968,116.400 365.173 C 116.400 365.378,116.805 365.673,117.300 365.828 C 117.795 365.983,119.497 366.715,121.082 367.455 C 122.666 368.195,124.219 368.800,124.533 368.800 C 124.846 368.800,125.302 369.040,125.545 369.334 C 125.789 369.628,127.161 370.204,128.594 370.614 C 130.027 371.023,131.200 371.483,131.200 371.635 C 131.200 371.787,132.370 372.228,133.800 372.615 C 135.230 373.002,136.400 373.460,136.400 373.632 C 136.400 373.804,137.750 374.246,139.400 374.613 C 141.050 374.980,142.400 375.416,142.400 375.582 C 142.400 375.748,143.885 376.203,145.700 376.593 C 147.515 376.984,149.090 377.434,149.200 377.594 C 149.310 377.754,151.012 378.203,152.982 378.591 C 154.952 378.978,156.842 379.450,157.182 379.639 C 157.522 379.828,159.870 380.340,162.400 380.777 C 164.930 381.214,167.819 381.746,168.821 381.959 C 176.850 383.666,216.287 383.369,217.600 381.592 C 217.710 381.443,219.915 381.005,222.500 380.617 C 225.085 380.230,227.200 379.753,227.200 379.557 C 227.200 379.360,227.503 379.200,227.874 379.200 C 228.866 379.200,233.767 377.937,234.000 377.622 C 234.110 377.473,235.460 377.018,237.000 376.612 C 238.540 376.205,239.890 375.748,240.000 375.595 C 240.110 375.443,241.190 374.995,242.400 374.600 C 243.610 374.205,244.690 373.764,244.800 373.620 C 244.910 373.477,245.900 373.025,247.000 372.616 C 248.100 372.208,249.090 371.762,249.200 371.626 C 249.310 371.489,250.165 371.041,251.100 370.628 C 252.035 370.216,252.800 369.726,252.800 369.539 C 252.800 369.353,253.031 369.200,253.313 369.200 C 254.012 369.200,260.000 365.609,260.000 365.190 C 260.000 365.005,260.378 364.734,260.839 364.588 C 262.057 364.201,269.659 356.490,270.894 354.388 C 272.944 350.899,274.745 346.978,275.023 345.400 C 275.178 344.520,275.506 343.547,275.752 343.239 C 276.325 342.520,276.369 331.291,275.800 330.885 C 275.580 330.728,275.080 329.348,274.689 327.817 C 274.298 326.286,273.838 324.936,273.667 324.817 C 273.495 324.698,273.100 323.970,272.789 323.200 C 272.306 322.001,270.910 319.791,268.400 316.249 C 267.599 315.117,263.671 311.249,262.056 310.000 C 261.345 309.450,260.303 308.602,259.739 308.115 C 259.176 307.628,258.194 306.999,257.557 306.717 C 256.921 306.435,256.400 306.096,256.400 305.963 C 256.400 305.830,255.635 305.382,254.700 304.968 C 253.765 304.553,252.762 303.986,252.471 303.707 C 252.181 303.428,251.776 303.200,251.572 303.200 C 251.369 303.200,250.063 302.662,248.671 302.004 C 247.278 301.346,245.568 300.694,244.870 300.554 C 244.171 300.414,243.600 300.165,243.600 300.000 C 243.600 299.834,241.935 299.396,239.900 299.025 C 237.865 298.653,235.889 298.182,235.510 297.978 C 233.106 296.681,213.365 296.656,210.924 297.946 C 210.526 298.156,208.715 298.644,206.900 299.030 C 205.085 299.415,203.600 299.844,203.600 299.983 C 203.600 300.121,202.610 300.571,201.400 300.982 C 200.190 301.393,199.200 301.869,199.200 302.038 C 199.200 302.207,198.795 302.467,198.300 302.615 C 196.249 303.229,188.800 309.189,188.800 310.217 C 188.800 310.356,188.271 311.219,187.624 312.135 C 186.976 313.051,186.326 314.477,186.178 315.304 C 186.030 316.132,185.750 316.907,185.555 317.028 C 185.058 317.335,185.102 323.600,185.600 323.600 C 185.820 323.600,186.000 323.969,186.000 324.420 C 186.000 328.306,191.136 331.560,197.805 331.901 C 201.517 332.090,202.000 332.039,202.000 331.457 C 202.000 331.022,201.629 330.779,200.900 330.739 C 199.314 330.651,199.160 330.613,197.451 329.872 C 196.599 329.502,195.810 329.200,195.697 329.200 C 195.317 329.200,193.603 327.166,192.999 325.998 C 191.923 323.918,192.495 319.348,194.081 317.355 C 195.359 315.748,198.178 313.200,198.676 313.200 C 198.978 313.200,199.320 312.954,199.435 312.653 C 199.550 312.353,200.850 311.787,202.322 311.396 C 203.795 311.006,205.253 310.487,205.562 310.243 C 206.341 309.628,219.124 309.634,219.515 310.250 C 219.672 310.497,220.430 310.827,221.200 310.983 C 222.924 311.331,225.331 312.118,225.600 312.421 C 225.710 312.544,226.430 312.888,227.200 313.184 C 227.970 313.481,228.780 313.936,229.000 314.196 C 229.220 314.457,229.850 314.908,230.400 315.199 C 231.471 315.767,233.134 317.182,234.633 318.800 C 236.734 321.068,238.000 322.595,238.000 322.861 C 238.000 323.016,238.253 323.395,238.561 323.704 C 239.145 324.288,240.400 327.616,240.400 328.581 C 240.400 328.885,240.567 329.193,240.770 329.267 C 241.980 329.702,242.035 342.412,240.831 343.190 C 240.652 343.306,240.207 344.435,239.842 345.700 C 239.477 346.965,239.044 348.000,238.880 348.000 C 238.716 348.000,238.233 348.648,237.807 349.439 C 236.916 351.093,229.393 358.400,228.581 358.400 C 228.283 358.400,227.896 358.636,227.720 358.925 C 227.268 359.666,220.520 363.336,217.949 364.239 C 216.767 364.654,215.710 365.097,215.600 365.224 C 215.179 365.708,207.672 367.969,205.000 368.416 C 203.460 368.674,201.840 369.035,201.400 369.219 C 196.859 371.118,160.595 371.137,159.200 369.241 C 159.090 369.092,157.020 368.640,154.600 368.236 C 152.180 367.833,150.110 367.375,150.000 367.218 C 149.890 367.061,148.135 366.599,146.100 366.190 C 144.065 365.782,142.400 365.317,142.400 365.158 C 142.400 364.999,141.050 364.550,139.400 364.161 C 137.750 363.772,136.400 363.330,136.400 363.179 C 136.400 363.028,135.545 362.677,134.500 362.400 C 132.710 361.924,131.827 361.562,126.400 359.075 C 122.771 357.412,118.325 355.190,116.200 353.977 C 115.100 353.349,113.633 352.563,112.940 352.229 C 112.247 351.895,111.437 351.392,111.140 351.110 C 110.843 350.829,109.925 350.243,109.100 349.808 C 108.275 349.374,107.600 348.901,107.600 348.758 C 107.600 348.614,107.056 348.272,106.391 347.996 C 105.725 347.721,105.050 347.294,104.891 347.048 C 104.731 346.801,103.970 346.252,103.200 345.827 C 102.430 345.402,101.565 344.727,101.277 344.327 C 100.990 343.927,100.501 343.600,100.191 343.600 C 99.882 343.600,99.435 343.240,99.200 342.800 C 98.965 342.360,98.538 342.000,98.252 342.000 C 97.966 342.000,97.260 341.505,96.683 340.900 C 96.106 340.295,94.875 339.170,93.948 338.400 C 93.020 337.630,91.900 336.595,91.458 336.100 C 91.017 335.605,90.463 335.188,90.228 335.173 C 89.873 335.151,82.925 327.551,80.015 324.000 C 78.141 321.714,74.864 317.265,74.391 316.366 C 74.112 315.835,73.639 315.256,73.342 315.080 C 73.044 314.904,72.800 314.533,72.800 314.256 C 72.800 313.978,72.479 313.402,72.086 312.975 C 71.693 312.549,70.959 311.390,70.454 310.400 C 69.949 309.410,69.015 307.700,68.378 306.600 C 67.741 305.500,67.026 304.160,66.790 303.622 C 64.490 298.388,64.026 297.255,63.788 296.300 C 63.637 295.695,63.380 295.200,63.216 295.200 C 63.053 295.200,62.602 294.030,62.215 292.600 C 61.828 291.170,61.379 290.000,61.217 290.000 C 61.056 290.000,60.619 288.616,60.247 286.924 C 59.876 285.232,59.424 283.657,59.243 283.424 C 59.063 283.191,58.590 281.380,58.193 279.400 C 57.796 277.420,57.336 275.620,57.171 275.400 C 57.006 275.180,56.566 272.480,56.193 269.400 C 55.820 266.320,55.309 263.368,55.058 262.839 C 54.422 261.504,54.414 234.356,55.049 233.561 C 55.296 233.253,55.620 231.650,55.769 230.000 C 56.083 226.524,56.753 222.068,57.091 221.200 C 57.220 220.870,57.734 218.800,58.233 216.600 C 59.554 210.775,60.888 205.830,61.200 205.600 C 61.350 205.490,61.805 204.140,62.212 202.600 C 62.618 201.060,63.061 199.710,63.195 199.600 C 63.329 199.490,63.773 198.275,64.183 196.900 C 64.592 195.525,65.064 194.400,65.232 194.400 C 65.399 194.400,65.664 193.815,65.821 193.100 C 66.096 191.840,68.427 186.416,69.216 185.200 C 69.430 184.870,69.716 184.330,69.852 184.000 C 70.696 181.946,75.349 172.755,75.633 172.580 C 75.822 172.463,76.348 171.609,76.801 170.683 C 77.254 169.758,78.063 168.280,78.598 167.400 C 79.132 166.520,79.960 165.080,80.437 164.200 C 80.914 163.320,81.551 162.456,81.852 162.280 C 82.153 162.104,82.400 161.786,82.400 161.574 C 82.400 161.217,85.116 156.854,85.620 156.400 C 85.742 156.290,86.277 155.480,86.808 154.600 C 87.340 153.720,88.095 152.651,88.487 152.225 C 88.879 151.798,89.200 151.329,89.200 151.183 C 89.200 150.945,89.812 150.169,91.790 147.900 C 92.125 147.515,92.400 147.063,92.400 146.896 C 92.400 146.729,92.805 146.143,93.300 145.595 C 93.795 145.046,95.263 143.248,96.562 141.599 C 98.897 138.634,99.429 138.000,101.303 135.951 C 101.830 135.374,102.666 134.384,103.161 133.751 C 106.659 129.272,116.324 119.622,124.592 112.352 C 125.688 111.388,126.788 110.420,127.037 110.200 C 127.285 109.980,128.173 109.260,129.010 108.600 C 129.847 107.940,130.961 106.995,131.484 106.500 C 132.008 106.005,132.595 105.600,132.789 105.600 C 132.983 105.600,133.496 105.150,133.929 104.600 C 134.361 104.050,134.843 103.600,135.000 103.600 C 135.299 103.600,138.942 100.856,140.034 99.808 C 140.382 99.474,140.791 99.200,140.943 99.200 C 141.328 99.200,144.878 96.731,146.013 95.674 C 146.529 95.193,147.193 94.800,147.488 94.800 C 147.783 94.800,148.129 94.530,148.255 94.200 C 148.382 93.870,148.665 93.600,148.885 93.600 C 149.104 93.600,150.084 93.060,151.062 92.400 C 152.040 91.740,152.977 91.200,153.145 91.200 C 153.312 91.200,153.798 90.877,154.225 90.482 C 154.651 90.086,155.843 89.356,156.874 88.858 C 157.905 88.361,158.805 87.829,158.874 87.677 C 158.943 87.525,159.706 87.040,160.568 86.600 C 165.034 84.322,165.816 83.889,166.001 83.594 C 166.112 83.417,167.012 82.954,168.001 82.564 C 168.991 82.174,169.890 81.743,170.000 81.605 C 170.307 81.221,177.063 78.000,177.561 78.000 C 177.802 78.000,178.000 77.829,178.000 77.620 C 178.000 77.412,178.990 76.929,180.200 76.547 C 181.410 76.166,182.400 75.721,182.400 75.559 C 182.400 75.397,183.345 74.953,184.500 74.573 C 185.655 74.193,186.690 73.755,186.800 73.600 C 186.910 73.445,187.990 72.995,189.200 72.600 C 190.410 72.205,191.490 71.756,191.600 71.603 C 191.710 71.449,192.880 70.993,194.200 70.588 C 195.520 70.184,196.960 69.635,197.400 69.368 C 197.840 69.101,199.210 68.596,200.445 68.246 C 201.680 67.896,203.210 67.339,203.845 67.007 C 204.480 66.676,205.360 66.400,205.800 66.394 C 206.240 66.387,207.320 66.058,208.200 65.661 C 209.080 65.265,211.150 64.599,212.800 64.182 C 214.450 63.765,215.890 63.301,216.000 63.152 C 216.110 63.002,217.775 62.567,219.700 62.185 C 221.625 61.803,223.200 61.364,223.200 61.210 C 223.200 61.056,225.090 60.605,227.400 60.209 C 229.710 59.813,231.600 59.365,231.600 59.213 C 231.600 59.061,233.805 58.602,236.500 58.195 C 239.195 57.787,241.490 57.333,241.600 57.185 C 241.818 56.893,251.536 55.600,253.512 55.600 C 254.184 55.600,254.793 55.440,254.867 55.243 C 255.526 53.480,313.007 53.421,315.400 55.182 C 315.620 55.344,319.175 55.802,323.300 56.201 C 327.425 56.601,330.800 57.054,330.800 57.208 C 330.800 57.363,331.835 57.611,333.100 57.758 C 334.365 57.906,336.075 58.134,336.900 58.264 C 339.417 58.664,338.828 57.376,334.759 53.589 C 329.639 48.823,328.787 48.045,326.354 45.911 C 321.856 41.967,321.415 41.600,321.170 41.600 C 320.951 41.600,319.934 40.748,317.566 38.580 C 317.218 38.261,316.798 38.000,316.634 38.000 C 316.469 38.000,315.566 37.370,314.626 36.600 C 313.686 35.830,312.801 35.200,312.659 35.200 C 312.516 35.200,312.058 34.885,311.640 34.500 C 311.223 34.115,310.278 33.392,309.540 32.893 C 305.853 30.398,304.001 29.200,303.830 29.200 C 303.725 29.200,302.840 28.660,301.862 28.000 C 300.884 27.340,299.885 26.800,299.642 26.800 C 299.399 26.800,299.200 26.647,299.200 26.461 C 299.200 26.274,298.435 25.784,297.500 25.372 C 296.565 24.959,295.688 24.464,295.552 24.271 C 295.137 23.685,283.224 17.630,281.300 17.028 C 280.805 16.873,280.400 16.614,280.400 16.452 C 280.400 16.290,279.455 15.826,278.300 15.420 C 277.145 15.014,276.020 14.555,275.800 14.400 C 275.580 14.245,274.410 13.785,273.200 13.377 C 271.990 12.969,270.803 12.494,270.563 12.321 C 270.085 11.977,265.680 10.425,261.600 9.164 C 260.170 8.722,258.640 8.190,258.200 7.983 C 257.760 7.776,256.142 7.321,254.603 6.972 C 253.065 6.623,251.625 6.189,251.403 6.007 C 251.182 5.825,249.380 5.376,247.400 5.010 C 245.420 4.643,243.496 4.182,243.125 3.984 C 242.754 3.786,240.594 3.341,238.325 2.994 C 236.056 2.648,233.840 2.201,233.400 2.002 C 230.457 0.670,191.940 -0.655,182.600 0.254 " stroke="none" fill="#2b146c" fill-rule="evenodd"></path><path id="path3" d="" stroke="none" fill="#184478" fill-rule="evenodd"></path><path id="path4" d="" stroke="none" fill="#185cb4" fill-rule="evenodd"></path></g></svg>